<svg id="OBJECTS" xmlns="http://www.w3.org/2000/svg" xmlns:xlink="http://www.w3.org/1999/xlink" viewBox="0 0 623.85707 377.17144"><defs><style>.cls-1,.cls-10,.cls-11,.cls-14,.cls-15,.cls-21,.cls-23,.cls-32,.cls-37,.cls-46,.cls-48,.cls-52,.cls-59,.cls-63,.cls-67{fill:none;stroke-miterlimit:10;}.cls-1{stroke:#cedbed;stroke-width:2.1183px;}.cls-2{fill:#cedbed;}.cls-3{fill:url(#linear-gradient);}.cls-4{fill:url(#linear-gradient-2);}.cls-5{fill:url(#linear-gradient-3);}.cls-6{fill:url(#linear-gradient-4);}.cls-7{fill:url(#linear-gradient-5);}.cls-8{fill:url(#linear-gradient-6);}.cls-9{fill:url(#linear-gradient-7);}.cls-10,.cls-32,.cls-46,.cls-63{stroke:#0c3069;}.cls-10{stroke-width:1.1047px;}.cls-11,.cls-21{stroke:#fff;}.cls-11{stroke-width:2.11398px;}.cls-12{fill:url(#linear-gradient-8);}.cls-13{fill:url(#linear-gradient-9);}.cls-14,.cls-15{stroke:#1656bd;}.cls-14{stroke-width:3.17097px;}.cls-15{stroke-width:3.3407px;}.cls-16{fill:#0c3069;}.cls-17{fill:#ff6d6d;}.cls-18{fill:#103f8a;}.cls-19{fill:#08224a;}.cls-20{fill:#ffa526;}.cls-21,.cls-23,.cls-46,.cls-48{stroke-width:0.72009px;}.cls-22{fill:#80371d;}.cls-23{stroke:#ffa526;}.cls-24{fill:url(#linear-gradient-10);}.cls-25{fill:#d92727;}.cls-26{fill:#a1c1ed;}.cls-27{fill:#16a3bd;}.cls-28{fill:#0f3d85;}.cls-29{fill:url(#linear-gradient-11);}.cls-30{fill:#1656bd;}.cls-31{fill:url(#linear-gradient-12);}.cls-32,.cls-37{stroke-width:0.88891px;}.cls-33{fill:url(#linear-gradient-13);}.cls-34{fill:url(#linear-gradient-14);}.cls-35{fill:url(#linear-gradient-15);}.cls-36{fill:url(#linear-gradient-16);}.cls-37,.cls-52{stroke:#d92727;}.cls-38{fill:url(#linear-gradient-17);}.cls-39{fill:url(#linear-gradient-18);}.cls-40{fill:url(#linear-gradient-19);}.cls-41{fill:#f04f4f;}.cls-42{fill:url(#linear-gradient-20);}.cls-43{fill:url(#linear-gradient-21);}.cls-44{fill:url(#linear-gradient-22);}.cls-45{fill:url(#linear-gradient-23);}.cls-47{fill:#456b4b;}.cls-48{stroke:#38573d;}.cls-49,.cls-54{opacity:0.5;}.cls-49{fill:url(#linear-gradient-24);}.cls-50{fill:url(#linear-gradient-25);}.cls-51{opacity:0.57;fill:url(#linear-gradient-26);}.cls-52{stroke-width:0.52849px;}.cls-53{fill:url(#linear-gradient-27);}.cls-54{fill:url(#linear-gradient-28);}.cls-55{fill:url(#linear-gradient-29);}.cls-56{fill:url(#linear-gradient-30);}.cls-57{fill:#967c45;}.cls-58{fill:#786337;}.cls-59{stroke:#4f4124;stroke-width:0.83506px;}.cls-60{fill:#fff;}.cls-61,.cls-65,.cls-66{opacity:0.4;}.cls-61{fill:url(#linear-gradient-31);}.cls-62{fill:url(#linear-gradient-32);}.cls-63{stroke-width:1.09198px;}.cls-64{fill:url(#linear-gradient-33);}.cls-65{fill:url(#linear-gradient-34);}.cls-66{fill:url(#linear-gradient-35);}.cls-67{stroke:#5d94de;stroke-width:0.75921px;}</style><linearGradient id="linear-gradient" x1="319.61236" y1="232.60092" x2="223.42634" y2="423.59881" gradientUnits="userSpaceOnUse"><stop offset="0.05319" stop-color="#a1c1ed"/><stop offset="1" stop-color="#a1c1ed" stop-opacity="0"/></linearGradient><linearGradient id="linear-gradient-2" x1="511.89367" y1="122.5197" x2="541.52802" y2="324.13805" xlink:href="#linear-gradient"/><linearGradient id="linear-gradient-3" x1="48.54056" y1="237.66378" x2="86.66324" y2="237.66378" gradientTransform="matrix(-0.9957, -0.0926, -0.0926, 0.9957, 149.03594, 67.55367)" gradientUnits="userSpaceOnUse"><stop offset="0.04283" stop-color="#ffa526"/><stop offset="1" stop-color="#ff6026"/></linearGradient><linearGradient id="linear-gradient-4" x1="16.76982" y1="224.20208" x2="39.95494" y2="224.20208" xlink:href="#linear-gradient-3"/><linearGradient id="linear-gradient-5" x1="37.34174" y1="272.30483" x2="75.44671" y2="272.30483" xlink:href="#linear-gradient-3"/><linearGradient id="linear-gradient-6" x1="2.85209" y1="249.93599" x2="24.83987" y2="249.93599" xlink:href="#linear-gradient-3"/><linearGradient id="linear-gradient-7" x1="42.88737" y1="200.13153" x2="76.74292" y2="200.13153" xlink:href="#linear-gradient-3"/><linearGradient id="linear-gradient-8" x1="572.15887" y1="394.45143" x2="572.15887" y2="231.39717" gradientUnits="userSpaceOnUse"><stop offset="0" stop-color="#6ab883"/><stop offset="1" stop-color="#dbb883"/></linearGradient><linearGradient id="linear-gradient-9" x1="209.24063" y1="397.59494" x2="209.24063" y2="282.43088" gradientTransform="matrix(-1, 0, 0, 1, 366.9271, 0)" xlink:href="#linear-gradient-8"/><linearGradient id="linear-gradient-10" x1="368.65927" y1="218.21985" x2="380.44917" y2="218.21985" gradientUnits="userSpaceOnUse"><stop offset="0" stop-color="#f04f4f"/><stop offset="0.14668" stop-color="#f04f4f" stop-opacity="0.98521"/><stop offset="0.27809" stop-color="#f04f4f" stop-opacity="0.93976"/><stop offset="0.40369" stop-color="#f04f4f" stop-opacity="0.86348"/><stop offset="0.52577" stop-color="#f04f4f" stop-opacity="0.75617"/><stop offset="0.64535" stop-color="#f04f4f" stop-opacity="0.61765"/><stop offset="0.76296" stop-color="#f04f4f" stop-opacity="0.44783"/><stop offset="0.87903" stop-color="#f04f4f" stop-opacity="0.24651"/><stop offset="0.99111" stop-color="#f04f4f" stop-opacity="0.01941"/><stop offset="1" stop-color="#f04f4f" stop-opacity="0"/></linearGradient><linearGradient id="linear-gradient-11" x1="164.88317" y1="230.04159" x2="164.88317" y2="276.48091" gradientUnits="userSpaceOnUse"><stop offset="0.02678" stop-color="#0c3069"/><stop offset="1" stop-color="#0c3069" stop-opacity="0"/></linearGradient><linearGradient id="linear-gradient-12" x1="189.02858" y1="196.38878" x2="213.6216" y2="229.75678" gradientUnits="userSpaceOnUse"><stop offset="0" stop-color="#0c3069"/><stop offset="1" stop-color="#0c3069" stop-opacity="0"/></linearGradient><linearGradient id="linear-gradient-13" x1="139.19839" y1="195.52486" x2="114.00315" y2="226.17284" xlink:href="#linear-gradient-12"/><linearGradient id="linear-gradient-14" x1="160.52776" y1="163.15695" x2="172.51127" y2="163.15695" xlink:href="#linear-gradient-10"/><linearGradient id="linear-gradient-15" x1="291.13012" y1="325.46031" x2="284.78816" y2="384.12314" xlink:href="#linear-gradient-12"/><linearGradient id="linear-gradient-16" x1="227.66022" y1="253.952" x2="318.09287" y2="253.952" gradientTransform="matrix(1, 0, 0, 1, 0, 0)" xlink:href="#linear-gradient-3"/><linearGradient id="linear-gradient-17" x1="218.77455" y1="200.76527" x2="201.60211" y2="181.13961" gradientUnits="userSpaceOnUse"><stop offset="0" stop-color="#80371d" stop-opacity="0.89273"/><stop offset="0.06869" stop-color="#80371d"/><stop offset="1" stop-color="#80371d" stop-opacity="0"/></linearGradient><linearGradient id="linear-gradient-18" x1="260.03508" y1="275.44845" x2="241.27351" y2="256.29049" gradientUnits="userSpaceOnUse"><stop offset="0" stop-color="#80371d"/><stop offset="1" stop-color="#80371d" stop-opacity="0"/></linearGradient><linearGradient id="linear-gradient-19" x1="303.53798" y1="279.07624" x2="295.25824" y2="241.55304" xlink:href="#linear-gradient-18"/><linearGradient id="linear-gradient-20" x1="283.07565" y1="206.27073" x2="281.02776" y2="222.45581" xlink:href="#linear-gradient-10"/><linearGradient id="linear-gradient-21" x1="224.09133" y1="266.86895" x2="244.49987" y2="266.86895" gradientTransform="matrix(1, 0, 0, 1, 0, 0)" xlink:href="#linear-gradient-3"/><linearGradient id="linear-gradient-22" x1="343.88264" y1="257.51324" x2="298.78437" y2="257.86556" gradientTransform="matrix(1, 0, 0, 1, 0, 0)" xlink:href="#linear-gradient-3"/><linearGradient id="linear-gradient-23" x1="299.48229" y1="235.11603" x2="299.48229" y2="191.11653" gradientUnits="userSpaceOnUse"><stop offset="0.04391" stop-color="#87b2ed"/><stop offset="1" stop-color="#fff"/></linearGradient><linearGradient id="linear-gradient-24" x1="474.92251" y1="241.71624" x2="474.92251" y2="267.43695" gradientUnits="userSpaceOnUse"><stop offset="0.03337"/><stop offset="1" stop-opacity="0"/></linearGradient><linearGradient id="linear-gradient-25" x1="436.71847" y1="195.41125" x2="460.76966" y2="195.41125" xlink:href="#linear-gradient-10"/><linearGradient id="linear-gradient-26" x1="489.49271" y1="173.67341" x2="478.91041" y2="260.25527" xlink:href="#linear-gradient-12"/><linearGradient id="linear-gradient-27" x1="415.93567" y1="198.1282" x2="427.85087" y2="198.1282" xlink:href="#linear-gradient-10"/><linearGradient id="linear-gradient-28" x1="492.39207" y1="285.07148" x2="435.31435" y2="370.68794" xlink:href="#linear-gradient-24"/><linearGradient id="linear-gradient-29" x1="402.89034" y1="176.23638" x2="404.74012" y2="109.38188" gradientUnits="userSpaceOnUse"><stop offset="0.04926" stop-color="#fff"/><stop offset="1" stop-color="#fff" stop-opacity="0"/></linearGradient><linearGradient id="linear-gradient-30" x1="467.11166" y1="168.3784" x2="479.08597" y2="168.3784" xlink:href="#linear-gradient-10"/><linearGradient id="linear-gradient-31" x1="519.47018" y1="232.01387" x2="484.06105" y2="402.98157" gradientUnits="userSpaceOnUse"><stop offset="0"/><stop offset="0.93149" stop-opacity="0"/></linearGradient><linearGradient id="linear-gradient-32" x1="540.00766" y1="246.52236" x2="564.95231" y2="246.52236" gradientTransform="matrix(1, 0, 0, 1, 0, 0)" xlink:href="#linear-gradient-3"/><linearGradient id="linear-gradient-33" x1="558.54626" y1="255.9731" x2="585.71037" y2="255.9731" gradientTransform="matrix(1, 0, 0, 1, 0, 0)" xlink:href="#linear-gradient-3"/><linearGradient id="linear-gradient-34" x1="333.68239" y1="195.08156" x2="333.68239" y2="331.00197" xlink:href="#linear-gradient-31"/><linearGradient id="linear-gradient-35" x1="476.0982" y1="54.26496" x2="489.84253" y2="123.35793" xlink:href="#linear-gradient-31"/></defs><path class="cls-1" d="M655.74916,190.113a187.18047,187.18047,0,0,1,7.1466,41.0654c3.6511,53.4234-10.9775,100.5018-23.8924,130.5899a318.70275,318.70275,0,0,1-20.3756,39.6666" transform="translate(-40.66653 -63.14928)"/><path class="cls-1" d="M89.85127,398.87765c-15.3602-76.2504-17.8551-137.7686-7.6431-187.842a228.73076,228.73076,0,0,1,17.7291-53.6153" transform="translate(-40.66653 -63.14928)"/><path class="cls-1" d="M646.83066,182.52355c5.5294,14.5618,8.8891,30.898,10.1351,49.1162,3.5601,52.0805-10.7424,98.0751-23.3679,127.4881a308.58388,308.58388,0,0,1-21.8793,41.9703" transform="translate(-40.66653 -63.14928)"/><path class="cls-1" d="M95.93457,398.88235c-15.4196-75.9657-18.005-137.0334-7.9168-186.4986,5.0336-24.6846,13.3534-46.9011,24.801-66.2793" transform="translate(-40.66653 -63.14928)"/><path class="cls-1" d="M636.99686,174.94015c7.9017,16.3521,12.5466,35.3385,14.0388,57.161,3.4692,50.7397-10.5072,95.6473-22.8434,124.3863a295.82549,295.82549,0,0,1-23.5491,44.4289" transform="translate(-40.66653 -63.14928)"/><path class="cls-1" d="M102.01937,398.88445c-15.4786-75.6831-18.1554-136.2985-8.1921-185.1526,6.2064-30.4339,17.5337-56.9598,33.6671-78.8408" transform="translate(-40.66653 -63.14928)"/><path class="cls-2" d="M109.05037,403.41145H595.56386s56.08011-75.2215,49.5418-170.8488c-6.5382-95.6273-74.1992-119.4665-159.38869-135.0986-85.1895-15.6322-184.9419-60.2754-284.7084-13.6395C81.186,139.83565,81.15987,271.29925,109.05037,403.41145Z" transform="translate(-40.66653 -63.14928)"/><path class="cls-3" d="M368.11847,304.79475c-8.9435-89.3043-114.5499-86.8608-114.5499-86.8608-37.4053-56.0082-104.3274-56.7843-137.0633-53.2894-32.0728,65.0724-25.8196,151.7768-7.4549,238.7669h361.872C458.633,309.18315,368.11847,304.79475,368.11847,304.79475Z" transform="translate(-40.66653 -63.14928)"/><path class="cls-4" d="M595.56386,403.41145s56.08-75.2215,49.5418-170.8488c-1.8316-26.789-8.4624-47.9417-18.9293-64.8609-33.34739,7.1209-86.39039,27.8809-124.0936,88.2713a614.36478,614.36478,0,0,0-66.53949,147.4384Z" transform="translate(-40.66653 -63.14928)"/><path class="cls-5" d="M77.66627,310.77775s-9.20064-16.8404-13.73486-22.2575c-6.19342-7.3993-17.27844-8.6052-22.05024,3.198-4.3921,10.864,3.8886,18.3871,12.6543,20.0746C63.30131,313.48035,77.66627,310.77775,77.66627,310.77775Z" transform="translate(-40.66653 -63.14928)"/><path class="cls-6" d="M90.896,306.51675s-2.6817-19.505-1.5249-28.7269c1.1568-9.222,9.4649-10.2589,14.9566-7.6294,5.4918,2.6295,9.7368,8.5677,6.9524,17.5053C108.49557,296.60335,90.896,306.51675,90.896,306.51675Z" transform="translate(-40.66653 -63.14928)"/><path class="cls-7" d="M86.49337,336.79935s-13.6035-12.9205-20.18949-16.099c-6.586-3.1786-16.12731-.9167-17.34531,8.4176-1.2181,9.3343,2.3642,15.9659,12.73927,17.2807S86.49337,336.79935,86.49337,336.79935Z" transform="translate(-40.66653 -63.14928)"/><path class="cls-8" d="M100.033,330.02845s.1954-14.1636,2.7581-22.9063c2.5626-8.7427,9.8349-9.7482,15.1186-5.7951,5.2837,3.9533,7.3861,12.437,3.2496,17.884C117.02277,324.65825,100.033,330.02845,100.033,330.02845Z" transform="translate(-40.66653 -63.14928)"/><path class="cls-9" d="M78.55877,287.04955a158.09214,158.09214,0,0,1-18.41962-17.9522c-9.27258-10.6598-6.85284-30.4083,8.62634-32.5558,14.03418-1.9472,19.93278,11.418,19.406,22.0996C87.64457,269.32275,78.55877,287.04955,78.55877,287.04955Z" transform="translate(-40.66653 -63.14928)"/><path class="cls-10" d="M71.37429,248.62275s5.23978,56.5314,39.907,130.2473" transform="translate(-40.66653 -63.14928)"/><path class="cls-10" d="M50.61617,297.07945c12.57925,7.2933,35.6556,17.6649,35.6556,17.6649s10.756-19.6469,14.2108-31.3976" transform="translate(-40.66653 -63.14928)"/><path class="cls-10" d="M59.8102,332.83325c15.39857,2.4817,34.31317,5.0147,34.31317,5.0147s13.097-16.8997,19.9018-27.9889" transform="translate(-40.66653 -63.14928)"/><rect class="cls-11" x="174.25464" y="72.35737" width="316.21149" height="128.1461"/><path class="cls-12" d="M480.94056,404.15145h182.5239s-2.114-39.3027-19.0258-26.624c0,0,5.2849-38.9096,1.5855-39.0117-3.6995-.102-13.7409,10.4636-13.7409,10.4636s5.2849-36.8376-3.171-34.8-7.9274,9.359-7.9274,9.359,5.2849-38.2411.5285-60.5687c-4.7565-22.3276,1.057-42.6719-8.4559-44.6551-9.513-1.9832-21.6683,58.2525-21.6683,58.2525s-7.9275-3.6867-11.6269,23.795c0,0-17.8962-12.6839-18.461,27.4818,0,0-29.80829-3.6033-34.2124,28.3226,0,0-18.805-1.5056-23.9585,12.0951C498.177,381.86225,479.421,385.74625,480.94056,404.15145Z" transform="translate(-40.66653 -63.14928)"/><path class="cls-13" d="M255.56637,404.15145H59.49978s6.00543-7.2739,12.75429-9.1917c0,0,2.8818-26.5808,19.2249-27.2855,0,0,26.3591-75.5138,39.1253-28.6423,0,0-1.5014-55.594,23.3638-28.2035,0,0,4.7202-48.0112,15.0376-48.7845,10.3174-.7734,15.0598,53.1332,15.0598,53.1332s13.1328-.3524,20.064,9.1605c0,0-1.3111-55.5786,9.12-55.7459s13.4976,54.1256,13.4976,54.1256,29.9137-18.6386,17.1457,59.7589C243.89277,382.47625,258.12,381.06285,255.56637,404.15145Z" transform="translate(-40.66653 -63.14928)"/><line class="cls-14" x1="321.70145" y1="252.30857" x2="312.24004" y2="350.37327"/><line class="cls-14" x1="352.05334" y1="252.30857" x2="361.51474" y2="350.37327"/><line class="cls-14" x1="319.34284" y1="276.75487" x2="354.56354" y2="276.75487"/><line class="cls-15" x1="317.40714" y1="298.38847" x2="356.49914" y2="298.38847"/><rect class="cls-16" x="312.24004" y="244.46117" width="49.2747" height="10.6601" rx="3.3997"/><line class="cls-14" x1="400.08424" y1="252.30857" x2="390.62284" y2="350.37327"/><line class="cls-14" x1="430.43614" y1="252.30857" x2="439.89754" y2="350.37327"/><line class="cls-14" x1="397.72564" y1="276.75487" x2="432.94634" y2="276.75487"/><line class="cls-15" x1="395.78994" y1="298.38847" x2="434.88194" y2="298.38847"/><rect class="cls-16" x="390.62284" y="244.46117" width="49.2747" height="10.6601" rx="3.3997"/><ellipse class="cls-2" cx="329.78612" cy="358.97957" rx="6.89977" ry="3.7535"/><path class="cls-17" d="M370.97147,382.47625l.2126,19.573a17.17735,17.17735,0,0,1,1.0279,6.0282c-.0292,3.4362,3.0505,8.7414.3223,11.204-2.7282,2.4627-5.9191.4147-6.154-3.0305-.2348-3.4453-.0325-6.7874-.9377-8.6692-.9051-1.8817-1.0648-4.9465.2162-6.3256l-3.304-18.4574Z" transform="translate(-40.66653 -63.14928)"/><path class="cls-16" d="M369.83107,408.70325c-.3069.0312-.6359.0687-.9652.1136a1.65523,1.65523,0,0,1-1.8519-1.2823l-1.3552-6.2784c-1.281,1.379-1.1214,4.4439-.2162,6.3256.9053,1.8818.7029,5.2239.9378,8.6692.2348,3.4452,3.4257,5.4932,6.1539,3.0305,2.7281-2.4627-.3515-7.7678-.3223-11.204a17.17735,17.17735,0,0,0-1.0279-6.0282l.1797,4.884A1.71072,1.71072,0,0,1,369.83107,408.70325Z" transform="translate(-40.66653 -63.14928)"/><path class="cls-17" d="M414.04207,375.63835l2.8261,19.3691a17.17944,17.17944,0,0,1,1.8242,5.8368c.4301,3.4093,4.1911,8.2554,1.8165,11.0605s-5.8107,1.2019-6.5037-2.1811c-.6931-3.3829-.9392-6.7222-2.0877-8.4661s-1.7163-4.7599-.6311-6.2977l-5.7407-17.8504Z" transform="translate(-40.66653 -63.14928)"/><path class="cls-16" d="M416.41637,401.78265c-.3.0718-.621.153-.9414.2415a1.65519,1.65519,0,0,1-2.0066-1.0234l-2.182-6.041c-1.0852,1.5379-.5174,4.5539.6311,6.2978s1.3945,5.0831,2.0877,8.4661c.693,3.383,4.129,4.9862,6.5037,2.1811,2.3746-2.8052-1.3864-7.6512-1.8165-11.0605a17.17944,17.17944,0,0,0-1.8242-5.8368l.8306,4.8162A1.71077,1.71077,0,0,1,416.41637,401.78265Z" transform="translate(-40.66653 -63.14928)"/><path class="cls-16" d="M362.15617,224.07775s11.6929,9.667,24.7732,3.5673c0,0-.0441-1.5194,1.2772-1.5194,1.3212,0,6.5623.9587,13.8289,4.4041,10.2176,4.8446,33.5544,31.0532,32.5906,44.3055-.7047,9.6891-7.7513,12.8602-14.0932,12.5959-6.342-.2643-5.8135-11.0104-5.8135-11.0104l-19.9066-16.7356-3.6995,27.746h-42.4558l-5.9896-43.4247-14.4455-61.7459a17.49064,17.49064,0,0,1,5.0759-8.3678,7.66339,7.66339,0,0,1,8.1364-1.2332Z" transform="translate(-40.66653 -63.14928)"/><path class="cls-18" d="M362.15617,224.07775l-20.7215-51.4182a7.6635,7.6635,0,0,0-8.1364,1.2331,17.49181,17.49181,0,0,0-5.076,8.3679l14.4456,61.7458C356.673,254.75245,362.15617,224.07775,362.15617,224.07775Z" transform="translate(-40.66653 -63.14928)"/><path class="cls-18" d="M420.53287,287.43115c6.3419.2643,13.3885-2.9068,14.0932-12.5959.9638-13.2523-22.373-39.4609-32.5906-44.3055-1.5862-.7521-3.0689-1.3794-4.4424-1.9104h0c-9.3087,15.2074-2.7804,31.0658-2.7804,31.0658l19.9067,16.7356S414.19087,287.16685,420.53287,287.43115Z" transform="translate(-40.66653 -63.14928)"/><path class="cls-19" d="M425.12407,277.11815c.1212,6.4147-1.803,10.7781-5.523,10.3281-3.7199-.45-5.5303-6.4645-4.8817-11.0255Z" transform="translate(-40.66653 -63.14928)"/><polygon class="cls-20" points="366.04 222.795 337.958 222.795 344.263 184.116 372.346 184.116 366.04 222.795"/><polygon class="cls-21" points="362.408 187.287 353.167 187.287 353.957 182.443 363.198 182.443 362.408 187.287"/><path class="cls-22" d="M359.93207,302.84555c15.3193.4642,13.7408,81.7406,13.7408,81.7406h-15.6786s-3.6661-6.9211-3.6995-13.0362c-.0344-6.2922-2.9948-12.8601-3.8756-19.5543C349.53827,345.30135,336.67827,302.14085,359.93207,302.84555Z" transform="translate(-40.66653 -63.14928)"/><line class="cls-23" x1="333.05245" y1="315.61577" x2="314.94154" y2="315.61577"/><path class="cls-22" d="M392.46117,298.197c15.244-1.587,24.54,79.1714,24.54,79.1714l-15.5381,2.0951s-4.558-6.3692-5.4082-12.425c-.8748-6.2312-4.6863-12.3446-6.4538-18.8611C387.83367,341.66075,369.32177,300.60575,392.46117,298.197Z" transform="translate(-40.66653 -63.14928)"/><line class="cls-23" x1="375.70064" y1="309.11047" x2="358.29454" y2="311.53047"/><path class="cls-17" d="M368.96047,213.64l-.7755,9.5836a1.69813,1.69813,0,0,1-1.9748,1.5375l-4.054-.6833s2.3782,13.5464,12.6178,15.4603c10.2396,1.914,12.1554-11.893,12.1554-11.893l-5.6153-.965-2.9067-13.0401Z" transform="translate(-40.66653 -63.14928)"/><path class="cls-24" d="M378.40737,213.64h-9.4469l-.3012,3.7234a16.20884,16.20884,0,0,0,11.7899,5.4364Z" transform="translate(-40.66653 -63.14928)"/><path class="cls-25" d="M365.30507,207.58425s-5.0207-9.4248.6166-13.0362c2.9067-6.2979,15.4144-5.329,18.3652,1.6295a9.65805,9.65805,0,0,1-2.2021,11.2306Z" transform="translate(-40.66653 -63.14928)"/><circle class="cls-25" cx="329.24734" cy="124.99077" r="5.8795"/><path class="cls-17" d="M383.41827,206.83555a1.64836,1.64836,0,0,0-1.639-.0904c.2526-1.8301.4377-3.3448.4377-3.3448s-8.1917,1.1451-13.3005-4.0518c0,0-.6166,4.5803-2.9948,6.2539,0,0,.0159.4163.0651,1.062a1.69012,1.69012,0,0,0-1.4524.1711c-1.057.5946-.4437,3.2518,1.892,3.3436.3361,1.8423.887,3.7145,1.7854,4.4957,2.0259,1.7617,4.7565,3.2591,6.2539,3.171s5.7254-3.5233,6.2538-5.0207a20.78013,20.78013,0,0,0,.55-2.6611,1.73155,1.73155,0,0,0,.2568.0151C383.86207,210.08745,384.47527,207.43015,383.41827,206.83555Z" transform="translate(-40.66653 -63.14928)"/><path class="cls-17" d="M422.20637,272.76535l-31.5776-7.1347s-5.417-7.2683-7.0025-7.5978c-1.5855-.3296.6606,2.4651.6606,2.4651s-2.2612-1.6056-2.8482-.5486a3.35539,3.35539,0,0,0,0,2.5104s-.7192,1.0952,1.1306,2.9258c1.8497,1.8306,6.8704,3.0197,6.8704,3.0197s23.5931,14.7443,29.0673,16.7797C423.98107,287.22045,428.28407,275.53995,422.20637,272.76535Z" transform="translate(-40.66653 -63.14928)"/><path class="cls-19" d="M341.43467,172.65955a7.6635,7.6635,0,0,0-8.1364,1.2331,17.49181,17.49181,0,0,0-5.076,8.3679C333.155,186.13615,341.08237,176.97555,341.43467,172.65955Z" transform="translate(-40.66653 -63.14928)"/><path class="cls-17" d="M341.24147,173.66105l-5.9065-19.1465s2.1801-4.4922,1.8498-5.8134c-.3304-1.3213-1.8498-.9249-1.8498-.9249a7.3618,7.3618,0,0,0-.5065-1.6516c-.2202-.2642-5.6372,2.2461-5.6372,2.2461s-.991,2.9728.3963,3.7656a2.43078,2.43078,0,0,0,1.9158,2.9728l5.0119,25.4497A15.51487,15.51487,0,0,0,341.24147,173.66105Z" transform="translate(-40.66653 -63.14928)"/><line class="cls-14" x1="234.67874" y1="252.30857" x2="225.21745" y2="350.37327"/><line class="cls-14" x1="265.03074" y1="252.30857" x2="274.49204" y2="350.37327"/><line class="cls-14" x1="232.32014" y1="276.75487" x2="267.54084" y2="276.75487"/><line class="cls-15" x1="230.38445" y1="298.38847" x2="269.47654" y2="298.38847"/><rect class="cls-16" x="225.21745" y="244.46117" width="49.27459" height="10.6601" rx="3.3997"/><path class="cls-26" d="M247.72477,112.65625h-93.8922c-19.025,0-10.5694-15.8542,0-18.6727s8.1033-19.7297,27.1283-26.4238c10.5621-3.7163,21.4913,7.0464,21.4913,7.0464s11.9787-3.8755,22.5483,3.8755c7.1026,5.2087,12.4669,16.6975,22.7243,16.9112C264.636,95.74515,271.85847,112.65625,247.72477,112.65625Z" transform="translate(-40.66653 -63.14928)"/><path class="cls-26" d="M322.44687,104.792s-5.2533-7.5518-13.7226,0c0,0,12.0072-1.8049,13.7226,7.2423,1.7153-9.0472,13.7226-7.2423,13.7226-7.2423C327.7,97.24015,322.44687,104.792,322.44687,104.792Z" transform="translate(-40.66653 -63.14928)"/><path class="cls-26" d="M580.36176,161.60665s-3.8933-5.5969-10.1703,0c0,0,8.899-1.3377,10.1703,5.3676,1.2713-6.7053,10.1704-5.3676,10.1704-5.3676C584.25506,156.00975,580.36176,161.60665,580.36176,161.60665Z" transform="translate(-40.66653 -63.14928)"/><path class="cls-2" d="M153.69977,425.30275c1.195,2.5817-4.3952,7.7105-12.4861,11.4556-8.0909,3.745-15.6186,4.6882-16.8136,2.1066-1.195-2.5817,4.3953-7.7105,12.4862-11.4555C144.97717,423.66435,152.50487,422.72115,153.69977,425.30275Z" transform="translate(-40.66653 -63.14928)"/><path class="cls-2" d="M200.34637,423.95235c-1.1949,2.5816,4.3953,7.7104,12.4862,11.4555,8.0909,3.745,15.6186,4.6882,16.8135,2.1066,1.195-2.5816-4.3952-7.7105-12.4861-11.4555C209.06907,422.31385,201.54137,421.37065,200.34637,423.95235Z" transform="translate(-40.66653 -63.14928)"/><path class="cls-16" d="M203.32127,408.80885l1.5855,11.2746s-1.7617,5.373,0,7.2227c1.7616,1.8498,8.6321,4.4042,8.6321,4.4042s11.1865,5.4611,12.9481,4.316c1.7617-1.1451-9.6891-12.8601-9.6891-12.8601l-3.7875-8.632-.8518-5.4657Z" transform="translate(-40.66653 -63.14928)"/><path class="cls-27" d="M214.32457,417.52935a5.41773,5.41773,0,0,0-3.5403,4.9671l-5.8775-2.413s-1.7617,5.373,0,7.2227c1.7616,1.8497,8.6321,4.4042,8.6321,4.4042s11.1865,5.461,12.9481,4.316c1.7617-1.1451-9.689-12.8601-9.689-12.8601Z" transform="translate(-40.66653 -63.14928)"/><path class="cls-16" d="M150.692,408.80885v11.2746a8.93318,8.93318,0,0,1,0,7.3989c-1.8497,3.6995-22.8574,10.702-23.9144,9.7772-1.057-.9249,10.0414-11.2306,10.0414-11.2306l4.8886-8.4996.2642-8.7205Z" transform="translate(-40.66653 -63.14928)"/><path class="cls-27" d="M140.88317,418.96265l-4.0642,7.0663s-11.0984,10.3057-10.0414,11.2306c1.057.9248,22.0647-6.0777,23.9144-9.7772a8.25141,8.25141,0,0,0,.6944-5.0816l-5.5716,1.25A6.78286,6.78286,0,0,0,140.88317,418.96265Z" transform="translate(-40.66653 -63.14928)"/><path class="cls-28" d="M191.78247,251.49345l3.4352,28.5387s4.7565,19.0258,5.8135,32.2382,15.0621,98.3001,15.0621,98.3001h-15.5906s-2.3783-5.0207-1.8498-9.5129-5.0207-8.4559-4.2279-13.4766c.7927-5.0207-5.5492-14.5336-6.8705-23.7823-1.3212-9.2487-21.6683-73.7251-21.6683-73.7251l-9.5129,76.8961s1.5855,13.4766,0,19.2901c-1.5855,5.8134-.5285,14.0051-3.171,24.3107h-15.4232s-2.0171-60.7769-2.2813-75.5748c-.2643-14.7978-.1218-64.9658,5.9442-83.5022Z" transform="translate(-40.66653 -63.14928)"/><path class="cls-29" d="M137.12427,278.38175c16.6489-10.9816,45.3331-17.6359,55.5178-19.7468l-.8596-7.1415H141.442C139.40207,257.72675,138.03427,267.54225,137.12427,278.38175Z" transform="translate(-40.66653 -63.14928)"/><path class="cls-30" d="M152.93807,168.34355s12.5298-16.7357,29.3425,0c0,0,22.0537-.3524,27.2065,16.8237l12.1554,34.176,39.8133,13.2124-1.5855,6.9824s-30.3004,2.9307-43.3366,0c-13.0362-2.9306-21.6683-19.8424-21.6683-19.8424l-1.7617,27.8341s2.4663,3.3471,1.7617,5.2849c-.7047,1.9378-6.1437,2.2902-12.5848,2.2902h-41.8502l-9.1606-80.1552A86.23659,86.23659,0,0,1,152.93807,168.34355Z" transform="translate(-40.66653 -63.14928)"/><path class="cls-17" d="M132.96357,251.50015s3.0765,1.8602,5.2228,1.0016c2.1464-.8585,3.7203-2.9333,7.2976-3.4341,3.5772-.5008,4.2927-.1431,4.2927.3577s-4.8651.9301-6.7252,2.2894c0,0,8.0051-1.4386,8.1561.0716.0715.7154-6.7252.8585-8.2992,1.8601,0,0,7.7268-.6439,7.7984,0,.0715.6439-6.7247,1.0255-7.7982,1.9794,0,0,5.5803.0239,5.2225,1.1686-.3577,1.1447-3.4341-.3577-5.7951.787s-4.1496,1.574-6.6537,0a15.92652,15.92652,0,0,0-4.0065-1.9556Z" transform="translate(-40.66653 -63.14928)"/><path class="cls-31" d="M210.88527,237.32415c-.0092-.0198-4.6914-10.058-7.1797-14.7029-2.4908-4.6495.4981-11.2916,1.3284-17.1034.8303-5.8119-6.538-10.8239-6.538-10.8239l-3.6306,25.0016S201.06347,231.83315,210.88527,237.32415Z" transform="translate(-40.66653 -63.14928)"/><path class="cls-30" d="M131.26977,174.94965c5.219-2.2781,9.3236,28.7215,4.0673,35.5887-5.2564,6.8671-18.733,22.3256-18.733,22.3256s2.6424.7928,0,3.171l19.29,15.4585-1.7836,6.408s-20.9417-4.6904-34.8147-12.0893c-13.873-7.399-5.1528-24.0695-2.2461-29.9376,2.9067-5.868,17.6773-22.3835,17.6773-22.3835S120.17137,179.79425,131.26977,174.94965Z" transform="translate(-40.66653 -63.14928)"/><path class="cls-32" d="M126.161,192.03775s.5089,6.0385,8.8866,15.9674" transform="translate(-40.66653 -63.14928)"/><path class="cls-33" d="M128.37547,198.24s-4.6476,10.8684-2.2145,13.2386c2.1341,2.0789-4.7995,10.3777-4.0109,14.9611,4.3439-5.0687,10.1426-11.9241,13.187-15.9014a7.02433,7.02433,0,0,0,.7814-1.3591C134.11537,206.803,129.68877,201.369,128.37547,198.24Z" transform="translate(-40.66653 -63.14928)"/><line class="cls-32" x1="174.25464" y1="340.26217" x2="157.94804" y2="340.26217"/><line class="cls-32" x1="113.30155" y1="340.26217" x2="96.99495" y2="340.26217"/><line class="cls-32" x1="125.10695" y1="227.83527" x2="125.10695" y2="191.95557"/><path class="cls-32" d="M171.30327,255.10485v14.4895c0,7.0026-5.5298,8.9845-5.5298,8.9845" transform="translate(-40.66653 -63.14928)"/><path class="cls-32" d="M182.28057,255.10485s-.5945,10.6487,11.9187,16.4668" transform="translate(-40.66653 -63.14928)"/><path class="cls-32" d="M148.28337,254.34915s-4.5554,18.037-10.7184,19.2175" transform="translate(-40.66653 -63.14928)"/><path class="cls-32" d="M189.75657,330.15115a11.48074,11.48074,0,0,0,5.9896,3.3471" transform="translate(-40.66653 -63.14928)"/><path class="cls-32" d="M152.58577,331.032s-5.7585,4.0518-9.6616,5.4611" transform="translate(-40.66653 -63.14928)"/><path class="cls-28" d="M159.91187,153.17965l-6.7711-9.552s-6.2875-4.5947-2.6601-10.8821c3.6274-6.2875,15.2349-2.781,20.676-1.2092,0,0,11.1239.6046,11.1239,8.2221,0,7.6174-8.5848,13.4212-8.5848,13.4212Z" transform="translate(-40.66653 -63.14928)"/><path class="cls-17" d="M162.18677,157.42125l-1.6479,11.0641a3.02966,3.02966,0,0,0,1.0907,2.84,9.33261,9.33261,0,0,0,10.401-.0572,3.06741,3.06741,0,0,0,1.167-2.9023l-1.63-10.9446Z" transform="translate(-40.66653 -63.14928)"/><path class="cls-34" d="M160.53017,168.89265c5.0112-.0609,9.4491-3.0224,11.9811-5.1349l-.9437-6.3365h-9.3808l-1.6478,11.064A3.114,3.114,0,0,0,160.53017,168.89265Z" transform="translate(-40.66653 -63.14928)"/><path class="cls-17" d="M169.84477,135.50665a15.49338,15.49338,0,0,1-11.5448,8.0814s-.3848,18.0868,8.0814,18.0868,10.0055-15.7779,10.0055-15.7779S169.58827,140.50945,169.84477,135.50665Z" transform="translate(-40.66653 -63.14928)"/><path class="cls-27" d="M133.947,198.37565s5.4264-6.6982,15.4678,0c0,0,8.1293-8.2837,17.4532,0,0,0,9.8524-8.2837,19.013,0,0,0,7.757-3.8796,12.0701,0l-2.4732,14.6711h-59.7371Z" transform="translate(-40.66653 -63.14928)"/><path class="cls-32" d="M199.44567,186.48855s-.2643,3.3031-1.057,8.9844c-.7928,5.6813-3.6995,22.0647-3.6995,22.0647" transform="translate(-40.66653 -63.14928)"/><path class="cls-32" d="M202.61667,195.20865s-1.8057,7.9275-6.2539,12.1554" transform="translate(-40.66653 -63.14928)"/><path class="cls-32" d="M135.74077,213.04675s-2.2145-18.3528-1.7938-25.7149" transform="translate(-40.66653 -63.14928)"/><path class="cls-2" d="M297.25307,422.12885c0,3.3269-4.9577,6.0239-11.0734,6.0239-6.1156,0-11.0733-2.697-11.0733-6.0239,0-3.327,4.9577-6.024,11.0733-6.024C292.29537,416.10485,297.25307,418.80185,297.25307,422.12885Z" transform="translate(-40.66653 -63.14928)"/><path class="cls-17" d="M281.58987,401.36445l-.2837,10.2448s-3.0163,7.6096-1.4937,7.7826c1.5227.173,3.8975.2623,2.8828,1.9752-1.0146,1.7129-2.19,3.9794,3.9862,4.4478,6.1762.4685,7.266-1.5744,6.4926-3.972-.6249-1.9372-4.0664-7.5296-5.3649-9.6056a2.86351,2.86351,0,0,1-.4276-1.7289l.8475-11.6247Z" transform="translate(-40.66653 -63.14928)"/><path class="cls-16" d="M279.81247,419.39185c1.5227.173,3.8975.2623,2.8828,1.9752-1.0146,1.7129-2.19,3.9794,3.9862,4.4478,6.1762.4685,7.266-1.5744,6.4926-3.972-.5341-1.6559-3.1257-5.9814-4.6783-8.4997-1.8936.4386-4.4905,1.2954-5.4508,2.8273-.8409,1.3414-2.0001.157-2.901-1.2453C279.50127,417,278.98347,419.29765,279.81247,419.39185Z" transform="translate(-40.66653 -63.14928)"/><path class="cls-28" d="M277.13447,325.57085l1.5855,77.8406h15.8548s3.171-4.3798,2.8187-14.245c-.3524-9.8653,3.5233-11.6269,3.8756-20.0828.3523-8.456,4.0518-46.5076,4.0518-46.5076Z" transform="translate(-40.66653 -63.14928)"/><path class="cls-35" d="M304.51147,331.032s-3.2424,6.342-8.175,7.0466c-4.9326.7047-5.6373,6.5181-10.3938,11.9792-4.7564,5.4612-2.811,10.5662-8.0117,14.6199l-.7965-39.1068,28.1864-2.9948Z" transform="translate(-40.66653 -63.14928)"/><path class="cls-17" d="M306.554,320.19785l11.9199-1.0195a3.87845,3.87845,0,0,1,2.9348.9892,15.46249,15.46249,0,0,1,4.0831,6.196c1.9378,5.285,2.0259,8.1917,4.0518,8.456,2.0259.2642-1.057-25.544-1.057-25.544l-24.2227-1.9378Z" transform="translate(-40.66653 -63.14928)"/><path class="cls-16" d="M323.937,308.91155l1.2905,10.0971-2.7806,2.2082a15.89568,15.89568,0,0,1,3.0449,5.1467c1.9378,5.285,2.0259,8.1917,4.0518,8.4559,2.0259.2643-1.057-25.5439-1.057-25.5439Z" transform="translate(-40.66653 -63.14928)"/><path class="cls-36" d="M288.00177,217.81805c-21.1284,3.0367-31.3854,9.511-33.546,11.0235v-.0001l-.0007.0006c-.2945.2061-.4423.3225-.4423.3225l.003.0112c-16.0164,11.786-27.281,49.5692-26.2956,54.6439,1.7616,9.0725,12.4196,6.6943,14.8859,2.8187,1.935-3.0406,12.4329-18.1128,16.8682-24.4684,1.731,13.4259,2.9944,25.3933,2.9944,25.3933h52.7174l2.9068-58.1345C308.97627,218.19825,288.00177,217.81805,288.00177,217.81805Z" transform="translate(-40.66653 -63.14928)"/><line class="cls-37" x1="218.80774" y1="199.02067" x2="215.20654" y2="174.17487"/><path class="cls-37" d="M251.57727,244.68715s.0255,8.8626,7.3147,13.4652" transform="translate(-40.66653 -63.14928)"/><path class="cls-17" d="M242.57687,252.18605l1.4775-30.5442a10.54093,10.54093,0,0,0,1.7667-3.7079c.4991-2.1129,4.29-3.9137,3.76-5.2622-.5301-1.3484-3.2663,1.8924-4.0453,1.5901-.7791-.3022-.6184-.8897-.8856-4.9371-.2671-4.0474.0531-7.9341-.7419-7.9065-.795.0277-1.311,9.3284-1.311,9.3284s-.7271-10.9481-2.0595-10.748c-1.3325.2001-.497,10.274-.497,10.274s-2.0115-9.0065-3.0045-8.9884c-.9929.0182.5302,9.5497.5302,9.5497s-3.4803-5.9886-4.0901-5.6874,3.1557,7.2296,3.1557,7.2296-1.1483,5.9631,1.4858,8.9345l-6.4504,30.3477Z" transform="translate(-40.66653 -63.14928)"/><polygon class="cls-38" points="219.075 201.11 219.075 201.11 219.074 201.106 219.075 201.11"/><path class="cls-39" d="M259.44737,262.20865l-2.9892-20.848s-5.0704,3.7753-4.8809,12.5913c.1894,8.816-6.681,7.5051-7.0774,12.917s-5.2409,9.3756-5.2409,9.3756l2.7053,11.1866a4.94646,4.94646,0,0,0,.6418-.7928C244.53727,283.60375,254.99717,268.58555,259.44737,262.20865Z" transform="translate(-40.66653 -63.14928)"/><path class="cls-40" d="M283.07977,287.56325h32.1063l2.3195-46.3891-12.823-3.0252c-5.6816,4.3601-7.2671,9.5789-7.135,13.2124.1321,3.6334-5.9456,6.8704-6.6722,12.0232C290.30177,267.45165,285.20377,281.72555,283.07977,287.56325Z" transform="translate(-40.66653 -63.14928)"/><path class="cls-41" d="M296.68877,277.45575l-22.7253,6.3419s-9.0505,0-10.1735,3.7656h34.8146Z" transform="translate(-40.66653 -63.14928)"/><path class="cls-28" d="M221.29957,325.83275c-3.2741-12.3348,6.3606-23.6919,36.3741-23.6919,36.4153,0,50.8182,2.114,50.8182,2.114v19.3782S226.04657,343.71585,221.29957,325.83275Z" transform="translate(-40.66653 -63.14928)"/><path class="cls-17" d="M287.01207,207.51545l3.3666,10.8007a3.122,3.122,0,0,1-.903,3.2661c-2.8795,2.5592-9.0448,7.7041-10.5933,6.2998-2.0397-1.8497-2.2461-14.0712-2.2461-14.0712Z" transform="translate(-40.66653 -63.14928)"/><path class="cls-42" d="M288.00177,210.69035l-.9897-3.1749-10.3758,6.2954a83.2492,83.2492,0,0,0,.7306,9.4301C282.87167,220.86335,286.434,214.231,288.00177,210.69035Z" transform="translate(-40.66653 -63.14928)"/><path class="cls-17" d="M270.04467,204.42645s1.2157,11.3971,3.799,12.6128c2.5834,1.2156,11.7011-5.2275,13.6006-9.0341,0,0,4.9243-3.0414,2.4621-7.0711l-11.1239-9.5003-9.8015,3.2671Z" transform="translate(-40.66653 -63.14928)"/><path class="cls-16" d="M275.549,195.38485s2.9067-2.0259,4.316,1.057c1.4094,3.0829,1.7617,6.0777,6.8705,5.9896,0,0,.5285-2.2901,3.1709-1.4974a62.101,62.101,0,0,0,1.057-7.2228c.2643-3.5233-5.8134-13.0362-16.1191-3.6994,0,0-5.7253-2.114-8.1036,3.3471-2.3782,5.4611-.5285,11.5388-.5285,11.5388s2.6425,1.8497,7.6632,0C273.87537,204.89775,269.82357,193.62315,275.549,195.38485Z" transform="translate(-40.66653 -63.14928)"/><path class="cls-43" d="M244.49987,248.52855l-1.4419,37.4154h-14.6819s-4.8839-1.8159-4.2233-13.8392c.6607-12.0233,5.6814-24.3108,5.6814-24.3108Z" transform="translate(-40.66653 -63.14928)"/><path class="cls-44" d="M318.09287,229.42875c4.7571,5.977,12.9319,27.4566,15.1521,47.9896a9.04915,9.04915,0,0,1-9.0016,10.0128h-29.4043s-2.3783-7.1347-1.1891-12.0233l12.2875-2.3782s-.9249-2.9068,1.7176-3.171c0,0-1.3213-6.4893-4.6244-18.4389C299.72767,239.47015,312.94,222.95465,318.09287,229.42875Z" transform="translate(-40.66653 -63.14928)"/><path class="cls-37" d="M306.59787,234.66655s-6.213,6.0673-2.8746,19.2855" transform="translate(-40.66653 -63.14928)"/><polygon class="cls-45" points="323.419 222.795 268.808 222.795 275.546 185.379 330.157 185.379 323.419 222.795"/><ellipse class="cls-16" cx="340.14884" cy="267.23628" rx="7.37236" ry="6.15882" transform="translate(-131.88392 236.33041) rotate(-42.42952)"/><path class="cls-46" d="M418.842,272.00515s2.6598-2.9725,7.5043-.2914" transform="translate(-40.66653 -63.14928)"/><path class="cls-2" d="M448.50847,419.357c.1808,2.0651-4.8241,4.1902-11.1787,4.7466s-11.6526-.6667-11.8334-2.7318c-.1809-2.0651,4.824-4.1902,11.1786-4.7466C443.02967,416.06875,448.32767,417.29185,448.50847,419.357Z" transform="translate(-40.66653 -63.14928)"/><path class="cls-2" d="M500.443,419.357c.18079,2.0651-4.82411,4.1902-11.17871,4.7466s-11.6526-.6667-11.8335-2.7318c-.18079-2.0651,4.8241-4.1902,11.1787-4.7466S500.26216,417.29185,500.443,419.357Z" transform="translate(-40.66653 -63.14928)"/><path class="cls-17" d="M444.77507,376.80055l-3.9434,34.9642-7.0405,4.8947s-7.2474,1.0663-7.2191,2.5194,15.3234-.2988,19.0222-.3709c3.6988-.0722.6089-2.6588.9486-5.5708.3396-2.9119,8.8001-36.6427,8.8001-36.6427Z" transform="translate(-40.66653 -63.14928)"/><path class="cls-17" d="M487.60906,376.80055l5.1581,34.9642-7.0406,4.8947s-7.2473,1.0663-7.219,2.5194,15.32341-.2988,19.0222-.3709c3.6988-.0722.6089-2.6588.9486-5.5708.33961-2.9119-.30139-36.6427-.30139-36.6427Z" transform="translate(-40.66653 -63.14928)"/><path class="cls-47" d="M492.12706,242.94945s7.6632,11.3076,7.35491,42.4723l1.62949,94.0417h-17.6381l-13.3638-89.3775-7.9305,48.7327s3.8422,11.5636-4.7732,40.6448h-15.662l2.9129-47.7268a347.62707,347.62707,0,0,1,9.06629-88.7872Z" transform="translate(-40.66653 -63.14928)"/><path class="cls-48" d="M470.10956,290.086s-4.5834-26.3491-3.3502-48.3697" transform="translate(-40.66653 -63.14928)"/><path class="cls-48" d="M462.091,241.71625s-1.25581,22.9459,5.05339,23.232" transform="translate(-40.66653 -63.14928)"/><path class="cls-49" d="M492.12706,242.94935h-38.404q-1.0644,4.45755-1.97239,8.8389a24.29592,24.29592,0,0,0,10.42319.3602c8.3937-1.307,25.7538,10.9445,35.9205,10.813C495.95936,248.61925,492.12706,242.94935,492.12706,242.94935Z" transform="translate(-40.66653 -63.14928)"/><path class="cls-17" d="M452.22566,186.984l-23.14789,16.4939-9.5307-12.0347.9689-.6386-3.4352-8.2798-4.6957,2.9416a2.86762,2.86762,0,0,0-1.2792,3.1078c.5589,2.2591,1.8793,5.5801,4.8298,5.7537,0,0,2.9948,19.4883,11.0984,21.9876,8.1036,2.4994,33.73559-19.6094,33.73559-19.6094Z" transform="translate(-40.66653 -63.14928)"/><path class="cls-50" d="M452.22576,186.984l-15.50729,11.0497c5.1651.1279,13.7006,1.0714,15.1573,5.8049,5.1122-3.8728,8.89389-7.1325,8.89389-7.1325Z" transform="translate(-40.66653 -63.14928)"/><path class="cls-30" d="M463.78956,177.29215l-12.072,8.6048a1.65728,1.65728,0,0,0-.2605,2.4685l9.48879,10.3665Z" transform="translate(-40.66653 -63.14928)"/><path class="cls-20" d="M467.81626,176.35905c-4.8445,2.7305-13.3885,16.2952-13.3885,16.2952a27.07169,27.07169,0,0,1,2.114-12.6838s-5.98959-.0881-6.69429-1.4975c-2.3084-4.6167,4.93259-14.974,4.93259-14.974-9.77709-2.2901-13.30039-8.1917-6.87039-12.0673s13.74089-7.3108,13.74089-7.3108,3.8439-5.9939,11.4482-.8809c4.847,3.2591,4.3087,9.3368,5.98721,11.5388,1.67849,2.2021,6.523,5.1088,4.76139,6.342,0,0,7.9274,2.7305,9.601,10.0414,0,0-8.0155-1.4904-12.5078,1.3248Z" transform="translate(-40.66653 -63.14928)"/><path class="cls-30" d="M480.94056,172.487c5.1088-4.2315,12.8601-4.8481,16.38341-1.0606,3.52329,3.7876,3.78749,16.6476,3.78749,16.6476h-4.9326s-5.8134,18.4093-5.9896,26.3367c-.1762,7.9275,6.5181,29.4196,6.5181,29.4196.9249,3.171-3.171,3.4352-9.9093,3.4352h-32.5024c-6.60619,0-3.56739-5.5492-2.2461-11.2305,1.3212-5.6813,5.9015-23.1217,5.9896-26.8211.0881-3.6995-6.65019-9.3368-3.6114-16.5596,3.0388-7.2227,8.2798-16.9118,13.3885-16.2952Z" transform="translate(-40.66653 -63.14928)"/><path class="cls-46" d="M481.51316,182.52475l-1.1891,7.1347s1.4533,1.6516,4.9546,1.7837" transform="translate(-40.66653 -63.14928)"/><path class="cls-46" d="M476.49246,185.36545s-.729,7.7293,7.8602,9.5129" transform="translate(-40.66653 -63.14928)"/><path class="cls-51" d="M490.18926,214.41065a44.99854,44.99854,0,0,1,.9489-7.1446l-8.1608-16.1727-2.6533-1.4339.7156-4.294c-4.04069,1.5194-2.1016,6.7396-1.3763,10.1075.7254,3.3678-.52839,5.0207-5.5492,4.7564-5.0207-.2642-4.8885.2643-1.9818,5.0207,2.9067,4.7565,4.6852,11.0654,3.5197,20.4792-.6782,5.4777-3.7978,16.9418-5.4389,21.5362h16.5849c6.7383,0,10.8342-.2642,9.9093-3.4352C496.70736,243.83025,490.01316,222.33805,490.18926,214.41065Z" transform="translate(-40.66653 -63.14928)"/><path class="cls-52" d="M429.07777,203.47785a4.47237,4.47237,0,0,1,2.0954,3.3215" transform="translate(-40.66653 -63.14928)"/><path class="cls-53" d="M422.06947,194.62825c-1.6782-.0417-4.3068-.1297-6.1338-.3004a66.42277,66.42277,0,0,0,1.492,6.7226c3.1985-1.4261,7.9315-.0516,10.4232.8781Z" transform="translate(-40.66653 -63.14928)"/><path class="cls-54" d="M444.04227,341.80545l-2.2984,37.658h15.662c8.6154-29.0812,4.77311-40.6448,4.77311-40.6448l7.93059-48.7327-1.588-11.1215C465.00556,293.05695,451.96556,323.745,444.04227,341.80545Z" transform="translate(-40.66653 -63.14928)"/><path class="cls-16" d="M426.57207,419.17885c.0283,1.4531,15.3234-.2988,19.0222-.3709,3.0822-.0602,1.4551-1.868,1.0219-4.1536-6.4161,3.2918-3.5738-2.8526-5.7844-2.8896l-7.0407,4.8947S426.54367,417.72575,426.57207,419.17885Z" transform="translate(-40.66653 -63.14928)"/><path class="cls-16" d="M478.50756,419.17885c.0283,1.4531,15.32341-.2988,19.0222-.3709,3.08221-.0602,1.4551-1.868,1.0219-4.1536-6.4161,3.2918-3.5738-2.8526-5.7844-2.8896l-7.0407,4.8947S478.47916,417.72575,478.50756,419.17885Z" transform="translate(-40.66653 -63.14928)"/><path class="cls-55" d="M427.85087,182.52475s-8.2458-3.5659-5.1038-13.608,15.1652-8.0603,14.5046-17.3089c-.6694-9.3721-10.1156-7.0026-14.5046-9.6451-4.3891-2.6424-.2493-10.1735-6.8114-13.3445-6.5621-3.1709-13.0362,1.5855-22.0206,3.171s-16.7797,3.0389-16.5155,0c.2643-3.0388,4.6244-3.4352,3.171-7.1347-1.4534-3.6994-8.8523-3.6994-9.9093-2.6425,0,0,8.0596,0,8.3238,2.7746.2643,2.7746-5.9711,4.0959-5.6941,9.1166s11.2433,3.9637,21.9453,3.3031c10.7021-.6606,9.7376,3.5673,8.8986,8.8523-.839,5.2849.8786,8.8523,7.8812,9.7771,7.0025.9249,10.2533,1.7912,6.3419,9.513-3.3697,6.6523-.6925,12.816,5.6204,17.176Z" transform="translate(-40.66653 -63.14928)"/><path class="cls-17" d="M458.03916,161.20885s.7046,1.2331,2.202,4.5803c1.4975,3.3471,3.2591,4.8445,6.8705,4.4922l.7046,6.0777s-6.9585,5.6514-3.1709,7.406c3.7875,1.7546,9.24861-6.1658,16.2952-11.2781,0,0-5.6012-2.626-7.2227-7.4906-2.8187-8.4559-7.1347-6.1658-9.2487-15.0621C464.46916,149.93425,461.91476,158.74255,458.03916,161.20885Z" transform="translate(-40.66653 -63.14928)"/><path class="cls-56" d="M473.71786,164.99635c-.1167-.3499-.2367-.6751-.3581-.9897-1.3285,2.8796-4.1674,5.9946-6.2481,6.2746l.2862,2.4689,11.68811-1.3486A13.36068,13.36068,0,0,1,473.71786,164.99635Z" transform="translate(-40.66653 -63.14928)"/><path class="cls-17" d="M499.482,188.074s-8.19171-4.2279-16.25121,1.1892l-12.9481,93.5436s-1.8498,2.1786-.66069,3.1373c1.18919.9586,3.96379.5622,7.13469.5622h8.7202s-5.6813-3.8287-7.1347-4.5568c-1.4534-.7282-1.9818-2.9743-1.9818-2.9743s12.1553-29.3315,10.9662-45.5827A312.8591,312.8591,0,0,0,499.482,188.074Z" transform="translate(-40.66653 -63.14928)"/><path class="cls-57" d="M414.99407,181.93875a24.57164,24.57164,0,0,0,3.5902,10.8356,2.1074,2.1074,0,0,0,1.7689.952h7.2505a2.1074,2.1074,0,0,0,1.7689-.952,24.573,24.573,0,0,0,3.5902-10.8356,1.03173,1.03173,0,0,0-1.0305-1.1291h-15.9077A1.03173,1.03173,0,0,0,414.99407,181.93875Z" transform="translate(-40.66653 -63.14928)"/><ellipse class="cls-2" cx="520.83471" cy="352.31317" rx="28.97917" ry="3.1155"/><rect class="cls-58" x="497.88145" y="238.38307" width="45.90649" height="113.9302"/><line class="cls-59" x1="543.78794" y1="275.80867" x2="497.88145" y2="275.80867"/><line class="cls-59" x1="543.78794" y1="314.28717" x2="497.88145" y2="314.28717"/><line class="cls-59" x1="543.78794" y1="279.07107" x2="497.88145" y2="279.07107"/><line class="cls-59" x1="543.78794" y1="241.64547" x2="497.88145" y2="241.64547"/><line class="cls-59" x1="543.78794" y1="317.54957" x2="497.88145" y2="317.54957"/><path class="cls-60" d="M564.50706,311.428a3.00712,3.00712,0,1,1-3.0058-2.9198A2.96373,2.96373,0,0,1,564.50706,311.428Z" transform="translate(-40.66653 -63.14928)"/><path class="cls-60" d="M564.50706,349.56435a3.00712,3.00712,0,1,1-3.0058-2.9197A2.96381,2.96381,0,0,1,564.50706,349.56435Z" transform="translate(-40.66653 -63.14928)"/><path class="cls-60" d="M564.50706,387.70085a3.00712,3.00712,0,1,1-3.0058-2.9198A2.96373,2.96373,0,0,1,564.50706,387.70085Z" transform="translate(-40.66653 -63.14928)"/><polygon class="cls-61" points="497.881 256.909 497.881 352.313 510.988 352.313 497.881 256.909"/><path class="cls-62" d="M552.48,281.64145a20.47293,20.47293,0,0,1-5.56061-19.1531s-12.2875-12.0233-4.0958-19.2901c0,0-4.7564-29.9921,5.0207-31.8418,9.7772-1.8498,10.8342,25.3678,10.8342,25.3678s5.5492-1.0412,1.9818,17.1179c0,0,7.6632.7188,2.5104,27.9363Z" transform="translate(-40.66653 -63.14928)"/><path class="cls-63" d="M547.84426,211.35645s2.5486,40.1248,10.1273,70.3554" transform="translate(-40.66653 -63.14928)"/><path class="cls-64" d="M558.54626,281.71185h12.5518s14.0051-22.1302,10.0414-30.3219c0,0,8.0596-18.3652,2.7746-20.8756-5.2849-2.5103-11.89109,12.6839-11.89109,12.6839S559.85636,242.80225,558.54626,281.71185Z" transform="translate(-40.66653 -63.14928)"/><path class="cls-63" d="M583.91406,230.51435s-14.1372,25.5987-18.9618,51.1975" transform="translate(-40.66653 -63.14928)"/><path class="cls-16" d="M561.50126,278.57885c-6.7247,0-12.0967.8075-12,1.7892l2.0845,21.1643h19.8309l2.0845-21.1643C573.59786,279.38635,568.22586,278.57885,561.50126,278.57885Z" transform="translate(-40.66653 -63.14928)"/><ellipse class="cls-2" cx="480.10424" cy="365.52217" rx="7.0026" ry="2.3782"/><ellipse class="cls-2" cx="186.99367" cy="365.52217" rx="7.00252" ry="2.3782"/><rect class="cls-57" x="198.59164" y="229.83107" width="269.46369" height="22.1968"/><polygon class="cls-58" points="192.143 229.831 184.698 365.003 189.661 365.003 208.119 229.831 192.143 229.831"/><polygon class="cls-58" points="474.504 229.831 481.949 365.003 476.986 365.003 458.528 229.831 474.504 229.831"/><polygon class="cls-65" points="191.857 235.025 475.508 248.057 474.504 229.831 192.143 229.831 191.857 235.025"/><rect class="cls-57" x="180.02474" y="222.27247" width="306.59759" height="9.6725"/><circle class="cls-66" cx="481.94906" cy="83.67747" r="23.63961"/><circle class="cls-30" cx="521.22259" cy="145.38218" r="23.63968" transform="translate(234.12443 563.98015) rotate(-78.4937)"/><circle class="cls-60" cx="521.22259" cy="145.38218" r="17.66458" transform="translate(220.15113 556.57269) rotate(-76.81905)"/><polyline class="cls-67" points="480.556 67.802 480.556 82.986 490.466 75.315"/></svg>