<svg id="Illustration" xmlns="http://www.w3.org/2000/svg" xmlns:xlink="http://www.w3.org/1999/xlink" viewBox="0 0 2753.44973 2788.5579"><defs><style>.cls-1{fill:url(#linear-gradient);}.cls-2{opacity:0.3;}.cls-3{fill:#91b3fa;}.cls-4,.cls-9{fill:#bdd0fb;}.cls-5{opacity:0.43;}.cls-6,.cls-7{fill:#fff;}.cls-7{opacity:0.52;}.cls-8{opacity:0.68;}.cls-9{opacity:0.7;}.cls-10{opacity:0.5;}.cls-11{fill:url(#linear-gradient-2);}.cls-12{fill:url(#linear-gradient-3);}.cls-13{fill:url(#linear-gradient-4);}.cls-14{fill:url(#linear-gradient-5);}.cls-15{fill:url(#linear-gradient-6);}.cls-16{fill:url(#linear-gradient-7);}.cls-17{fill:url(#linear-gradient-8);}.cls-18{fill:url(#linear-gradient-9);}.cls-19{fill:url(#linear-gradient-10);}.cls-20{fill:url(#linear-gradient-11);}.cls-21{fill:url(#linear-gradient-12);}.cls-22{fill:url(#linear-gradient-13);}.cls-23{fill:url(#linear-gradient-14);}.cls-24{fill:url(#linear-gradient-15);}.cls-25{fill:url(#linear-gradient-16);}.cls-26{fill:url(#linear-gradient-17);}.cls-27{fill:url(#linear-gradient-18);}.cls-28{fill:url(#linear-gradient-19);}.cls-29{fill:url(#linear-gradient-20);}.cls-30{fill:url(#linear-gradient-21);}.cls-31{fill:url(#linear-gradient-22);}.cls-32{fill:url(#linear-gradient-23);}.cls-33{fill:url(#linear-gradient-24);}.cls-34{fill:url(#linear-gradient-25);}.cls-35{fill:url(#linear-gradient-26);}.cls-36{fill:url(#linear-gradient-27);}.cls-37{fill:url(#linear-gradient-28);}.cls-38{fill:url(#linear-gradient-29);}.cls-39{fill:#7d97f4;}</style><linearGradient id="linear-gradient" x1="3466.90273" y1="3281.16428" x2="1400.35629" y2="1472.93752" gradientUnits="userSpaceOnUse"><stop offset="0" stop-color="#dae3fe"/><stop offset="1" stop-color="#e9effd"/></linearGradient><linearGradient id="linear-gradient-2" x1="2171.05625" y1="-507.81657" x2="1676.43063" y2="184.65873" gradientUnits="userSpaceOnUse"><stop offset="0" stop-color="#e1473d"/><stop offset="1" stop-color="#e9605a"/></linearGradient><linearGradient id="linear-gradient-3" x1="2195.37616" y1="-489.43781" x2="1700.75054" y2="203.03749" gradientUnits="userSpaceOnUse"><stop offset="0" stop-color="#ff928e"/><stop offset="1" stop-color="#fe7062"/></linearGradient><linearGradient id="linear-gradient-4" x1="1482.90541" y1="77.02732" x2="-265.28905" y2="1554.66955" gradientUnits="userSpaceOnUse"><stop offset="0" stop-color="#4f52ff"/><stop offset="1" stop-color="#4042e2"/></linearGradient><linearGradient id="linear-gradient-5" x1="475.42115" y1="903.7509" x2="1975.50741" y2="-82.46508" xlink:href="#linear-gradient-4"/><linearGradient id="linear-gradient-6" x1="961.5514" y1="1146.72945" x2="1550.6664" y2="1146.72945" xlink:href="#linear-gradient"/><linearGradient id="linear-gradient-7" x1="503.01756" y1="580.95094" x2="1057.38196" y2="580.95094" xlink:href="#linear-gradient"/><linearGradient id="linear-gradient-8" x1="1348.387" y1="1211.1166" x2="1539.0764" y2="1211.1166" gradientTransform="translate(781.54005 -553.15856) rotate(29.43461)" xlink:href="#linear-gradient"/><linearGradient id="linear-gradient-9" x1="974.2616" y1="1207.69575" x2="1162.1359" y2="1207.69575" gradientTransform="translate(1609.71962 -310.96572) rotate(61.11765)" xlink:href="#linear-gradient"/><linearGradient id="linear-gradient-10" x1="1777.3048" y1="926.28386" x2="-97.4082" y2="3431.10674" xlink:href="#linear-gradient-4"/><linearGradient id="linear-gradient-11" x1="353.0895" y1="2647.95145" x2="1913.26394" y2="1405.01087" xlink:href="#linear-gradient-4"/><linearGradient id="linear-gradient-12" x1="1026.36364" y1="2757.64037" x2="1518.04646" y2="2757.64037" xlink:href="#linear-gradient"/><linearGradient id="linear-gradient-13" x1="2191.2626" y1="-330.91439" x2="1910.37144" y2="70.35901" gradientTransform="matrix(1.388, -0.0686, 0.0685, 1.3855, 1375.5504, -570.6171)" gradientUnits="userSpaceOnUse"><stop offset="0" stop-color="#09005d"/><stop offset="1" stop-color="#1a0f91"/></linearGradient><linearGradient id="linear-gradient-14" x1="11233.64529" y1="-23332.74865" x2="10952.75445" y2="-22931.47574" gradientTransform="matrix(-0.6475, -1.2297, 1.2274, -0.6463, -12090.5942, -5472.2012)" xlink:href="#linear-gradient-13"/><linearGradient id="linear-gradient-15" x1="-5358.70933" y1="3514.04528" x2="-5355.38235" y2="3866.71173" gradientTransform="matrix(-1, 0, 0, 1, -3026.8631, 0)" xlink:href="#linear-gradient-13"/><linearGradient id="linear-gradient-16" x1="-5443.71904" y1="3120.20599" x2="-5462.01784" y2="2977.14365" gradientTransform="matrix(-1, 0, 0, 1, -3026.8631, 0)" gradientUnits="userSpaceOnUse"><stop offset="0" stop-color="#febbba"/><stop offset="1" stop-color="#ff928e"/></linearGradient><linearGradient id="linear-gradient-17" x1="-5835.18462" y1="3518.53846" x2="-5831.85766" y2="3871.20286" gradientTransform="matrix(-1, 0, 0, 1, -3026.8631, 0)" xlink:href="#linear-gradient-13"/><linearGradient id="linear-gradient-18" x1="-5843.66234" y1="3169.23796" x2="-5861.49408" y2="3029.82713" xlink:href="#linear-gradient-16"/><linearGradient id="linear-gradient-19" x1="-5968.27541" y1="2639.5013" x2="-5419.421" y2="2639.5013" gradientTransform="matrix(-1, 0, 0, 1, -3026.8631, 0)" xlink:href="#linear-gradient-13"/><linearGradient id="linear-gradient-20" x1="3540.96829" y1="1296.50607" x2="3054.42541" y2="1978.66944" gradientTransform="matrix(1, 0, 0, 1, 0, 0)" xlink:href="#linear-gradient-13"/><linearGradient id="linear-gradient-21" x1="8265.0661" y1="-17495.75724" x2="7788.55426" y2="-16828.64122" gradientTransform="matrix(-1, 0, 0, 1, -3026.8631, 0)" xlink:href="#linear-gradient-3"/><linearGradient id="linear-gradient-22" x1="2450.79009" y1="1893.55961" x2="2483.7233" y2="1893.55961" xlink:href="#linear-gradient-2"/><linearGradient id="linear-gradient-23" x1="-5708.8905" y1="2253.6089" x2="-5458.971" y2="2253.6089" xlink:href="#linear-gradient-16"/><linearGradient id="linear-gradient-24" x1="-5478.5839" y1="1940.32077" x2="-5011.8719" y2="1940.32077" xlink:href="#linear-gradient-16"/><linearGradient id="linear-gradient-25" x1="-5646.60776" y1="1678.5582" x2="-5484.18087" y2="1511.91255" xlink:href="#linear-gradient-16"/><linearGradient id="linear-gradient-26" x1="-5411.04857" y1="1406.91655" x2="-5613.55411" y2="1674.81484" xlink:href="#linear-gradient-16"/><linearGradient id="linear-gradient-27" x1="-5565.70518" y1="1471.5401" x2="-5323.80879" y2="1471.5401" gradientTransform="matrix(-1, 0, 0, 1, -3026.8631, 0)" xlink:href="#linear-gradient-13"/><linearGradient id="linear-gradient-28" x1="-5707.63955" y1="1619.07078" x2="-5545.21372" y2="1452.42622" xlink:href="#linear-gradient-16"/><linearGradient id="linear-gradient-29" x1="2579.3152" y1="1962.95616" x2="2762.22873" y2="1962.95616" xlink:href="#linear-gradient-2"/></defs><path class="cls-1" d="M3115.6974,2342.0714c-267.081,628.8683-978.523,981.1646-1595.4871,886.1341-100.3924-15.4639-375.6211-61.5264-619.2983-278.8359-469.0946-418.337-569.414-1246.6986-191.0096-1830.465,275.412-424.8793,769.1161-665.7291,1238.2318-653.6814,101.0475,2.5948,488.304,18.5882,828.6349,299.218,49.9879,41.219,160.2413,139.1667,259.6061,294.5543C3269.7019,1423.8741,3289.7573,1932.23,3115.6974,2342.0714Z" transform="translate(-478.27514 -455.00001)"/><g class="cls-2"><path class="cls-3" d="M2177.6469,875.6297a9.87639,9.87639,0,0,1-9.4646-10.2742c.4335-10.5894.4153-21.3547-.0576-31.9986a9.87624,9.87624,0,0,1,9.2378-10.2935l.1924-.0122a9.87772,9.87772,0,0,1,10.3043,9.432c.4965,11.2029.518,22.5365.0597,33.684a9.877,9.877,0,0,1-9.2308,9.4502A9.521,9.521,0,0,1,2177.6469,875.6297Zm-15.3753-93.921c-1.9174-10.475-4.3018-20.9663-7.0886-31.1928a9.87635,9.87635,0,1,1,19.0583-5.1914c2.9326,10.7581,5.4431,21.8023,7.4629,32.8234a9.87889,9.87889,0,0,1-7.938,11.4948,10.06939,10.06939,0,0,1-1.1643.1432A9.878,9.878,0,0,1,2162.2716,781.7087Zm-24.2043-80.2435c-4.1898-9.7583-8.8544-19.452-13.8696-28.8179a9.87723,9.87723,0,1,1,17.4155-9.3241c5.2807,9.8629,10.1948,20.074,14.6049,30.3484a9.87664,9.87664,0,1,1-18.1508,7.7936Zm-41.5435-72.8145c-6.272-8.5861-12.9914-16.9971-19.9674-25.0053a9.87742,9.87742,0,0,1,14.8952-12.9764c7.345,8.4334,14.4173,17.2898,21.0217,26.3228a9.87821,9.87821,0,0,1-15.9495,11.6589Zm-56.7294-61.7448c-8.0034-6.9609-16.4189-13.6794-25.0134-19.9611a9.87666,9.87666,0,1,1,11.6602-15.9447c9.0408,6.6092,17.8958,13.6783,26.3169,21.0031a9.87608,9.87608,0,1,1-12.9637,14.9027Zm-68.9772-47.6534c-9.358-5.027-19.0474-9.7123-28.8021-13.9291a9.8775,9.8775,0,0,1,7.8372-18.1339c10.2654,4.4358,20.4655,9.3709,30.3136,14.6605a9.87731,9.87731,0,0,1-9.3487,17.4025Zm-366.749-4.5985a9.87679,9.87679,0,0,1,4.0673-13.3635c9.8607-5.2572,20.0863-10.1551,30.3883-14.5551a9.87624,9.87624,0,0,1,7.7596,18.1645c-9.782,4.1777-19.49,8.8298-28.8532,13.8235a9.86746,9.86746,0,0,1-13.362-4.0694Zm288.9719-26.5606c-10.236-2.8182-20.7187-5.2263-31.1594-7.1538a9.87745,9.87745,0,1,1,3.5898-19.426c10.9941,2.0317,22.0339,4.5668,32.8131,7.5357a9.8764,9.8764,0,1,1-5.2435,19.0441Zm-209.7741-7.1745a9.87845,9.87845,0,0,1,6.9574-12.1131c10.7861-2.9149,21.8417-5.4028,32.8562-7.4008a9.87753,9.87753,0,1,1,3.5224,19.4385c-10.4683,1.8976-20.9747,4.2616-31.2248,7.0345a9.883,9.883,0,0,1-12.1112-6.9591Zm126.9993-5.8188c-10.6022-.4561-21.3631-.4611-31.9874-.0108a9.87618,9.87618,0,0,1-1.0488-19.7234c.0694-.0044.1407-.0089.21-.0094,11.1847-.4779,22.5143-.4742,33.6726.0044a9.87792,9.87792,0,0,1,.2141,19.7261C1810.9773,475.1091,1810.622,475.1123,1810.2653,475.1001Z" transform="translate(-478.27514 -455.00001)"/><path class="cls-3" d="M1555.4199,557.9049a9.82266,9.82266,0,0,0,5.5058-2.1198c3.9877-3.1679,8.1089-6.3019,12.247-9.325a9.87567,9.87567,0,1,0-11.6441-15.954c-4.3545,3.1758-8.6874,6.4741-12.8851,9.8061a9.87737,9.87737,0,0,0,6.7764,17.5927Z" transform="translate(-478.27514 -455.00001)"/></g><g class="cls-2"><path class="cls-3" d="M1411.4265,822.3738a9.88,9.88,0,0,0,9.1958-8.9148c.4844-5.0682,1.0838-10.213,1.7823-15.2869a9.87732,9.87732,0,1,0-19.5702-2.6931c-.7337,5.3425-1.3661,10.7601-1.8777,16.0969a9.87353,9.87353,0,0,0,10.4698,10.7979Z" transform="translate(-478.27514 -455.00001)"/><path class="cls-3" d="M1798.8778,1244.0326a9.87732,9.87732,0,1,1-.2834-19.7526c10.3841-.1488,20.9232-.7441,31.445-1.7679a9.87873,9.87873,0,0,1,1.9132,19.6646q-6.8382.6657-13.6425,1.0979C1811.8392,1243.6854,1805.301,1243.9416,1798.8778,1244.0326Zm74.2839-18.0258a9.87529,9.87529,0,0,1,7.3329-11.8851c10.1898-2.4175,20.3877-5.2876,30.3102-8.5385a9.87559,9.87559,0,1,1,6.1512,18.7689c-10.4467,3.4235-21.182,6.4477-31.9052,8.9877a9.86627,9.86627,0,0,1-11.8891-7.333Zm-128.0273,15.1123c-10.9062-1.3453-21.9052-3.1752-32.6902-5.4443a9.87779,9.87779,0,1,1,4.0657-19.3327c10.2422,2.1566,20.6844,3.8948,31.0409,5.1701a9.87762,9.87762,0,0,1-2.4164,19.6069Zm208.5081-41.545a9.87519,9.87519,0,0,1,4.5428-13.208c9.397-4.5865,18.7087-9.631,27.6779-14.99a9.8761,9.8761,0,0,1,10.134,16.9544c-9.4458,5.6446-19.2528,10.9565-29.1467,15.7867a9.86233,9.86233,0,0,1-13.208-4.5431Zm-292.9445,21.4396c-10.3368-3.7087-20.6592-7.9129-30.6826-12.4958a9.876,9.876,0,1,1,8.2115-17.9641c9.5217,4.3516,19.326,8.3455,29.1426,11.8664a9.87709,9.87709,0,1,1-6.6715,18.5935Zm-77.98-38.1361c-9.2986-5.893-18.4562-12.2474-27.2201-18.8853a9.87674,9.87674,0,1,1,11.9281-15.7455c8.3272,6.3065,17.0302,12.3454,25.8657,17.9471a9.87609,9.87609,0,1,1-10.5737,16.6837Zm-67.8192-54.2256c-7.7986-7.7819-15.3552-15.9813-22.4591-24.3638a9.877,9.877,0,1,1,15.0705-12.771c6.7495,7.9684,13.9296,15.7547,21.3422,23.1513a9.87726,9.87726,0,0,1-13.9536,13.9835Zm-54.3742-67.7278c-5.9079-9.2978-11.4867-18.9564-16.5802-28.7076a9.87622,9.87622,0,1,1,17.5081-9.1447c4.8361,9.2573,10.1329,18.4275,15.7461,27.2605a9.87685,9.87685,0,1,1-16.674,10.5918Zm-38.1826-78.0613c-3.7049-10.3457-7.0149-20.9876-9.8401-31.6326a9.87725,9.87725,0,0,1,19.0928-5.07c2.6831,10.1128,5.828,20.2197,9.3453,30.048a9.87635,9.87635,0,1,1-18.598,6.6546Zm-20.0896-84.4519c-1.0048-8.0353-1.7742-16.2016-2.2862-24.2682q-.27825-4.3836-.4586-8.7466a9.766,9.766,0,0,1,9.4571-10.2765,9.87551,9.87551,0,0,1,10.2805,9.4568q.17355,4.14675.4351,8.315c.4869,7.6703,1.2169,15.429,2.1718,23.0696a9.87547,9.87547,0,0,1-8.5748,11.0246c-.2034.0244-.4068.0452-.6091.058A9.87572,9.87572,0,0,1,1402.2524,898.411Z" transform="translate(-478.27514 -455.00001)"/><path class="cls-3" d="M2034.8584,1159.5986a9.84184,9.84184,0,0,0,5.5466-2.1497c4.1715-3.3458,8.3508-6.843,12.4221-10.395a9.87671,9.87671,0,0,0-12.9833-14.8873c-3.8681,3.3733-7.8385,6.6949-11.7982,9.8725a9.87568,9.87568,0,0,0,6.8128,17.5595Z" transform="translate(-478.27514 -455.00001)"/></g><path class="cls-3" d="M2053.5164,991.3023a4.61654,4.61654,0,0,0,.0086-5.3599l-32.5391-45.8037a244.76078,244.76078,0,0,0,17.977-77.2294l49.3719-26.7415a4.61731,4.61731,0,0,0,2.3551-4.8149l-11.0258-66.4845a4.61431,4.61431,0,0,0-3.7825-3.7966l-55.3617-9.3732a244.73692,244.73692,0,0,0-41.9439-67.2932l16.0122-53.8544a4.61694,4.61694,0,0,0-1.739-5.0696l-54.8083-39.2162a4.61555,4.61555,0,0,0-5.3598-.0086l-45.8029,32.5394a244.70228,244.70228,0,0,0-77.2302-17.9773l-26.7416-49.3719a4.61419,4.61419,0,0,0-4.814-2.3555l-66.4862,11.0251a4.61743,4.61743,0,0,0-3.7958,3.7836l-9.3731,55.3621a244.70511,244.70511,0,0,0-67.2928,41.9443l-53.8548-16.013a4.61477,4.61477,0,0,0-5.0696,1.739l-39.2162,54.8083a4.617,4.617,0,0,0-.0094,5.3587l32.5402,45.8044a244.70536,244.70536,0,0,0-17.9769,77.2294l-49.372,26.7419a4.61456,4.61456,0,0,0-2.3559,4.8137l11.0259,66.4862a4.61548,4.61548,0,0,0,3.7832,3.7957l55.3617,9.3736a244.75059,244.75059,0,0,0,41.944,67.2932l-16.0122,53.8544a4.61518,4.61518,0,0,0,1.7386,5.07l54.8086,39.2158a4.61643,4.61643,0,0,0,5.3591.009l45.8037-32.5398a244.74269,244.74269,0,0,0,77.2298,17.9777l26.7416,49.372a4.61877,4.61877,0,0,0,4.8144,2.355l66.4853-11.0262a4.6159,4.6159,0,0,0,3.7962-3.7836l9.3732-55.3605a244.75679,244.75679,0,0,0,67.2928-41.9444l53.8548,16.0126a4.61633,4.61633,0,0,0,5.0696-1.7386Z" transform="translate(-478.27514 -455.00001)"/><path class="cls-4" d="M1787.6482,914.0306a67.70224,67.70224,0,1,1,9.9478.0994A67.81956,67.81956,0,0,1,1787.6482,914.0306Zm-27.946-107.1524a51.93945,51.93945,0,1,0,37.8611-12.1182,52.7208,52.7208,0,0,0-7.7037-.0755A51.563,51.563,0,0,0,1759.7022,806.8782Z" transform="translate(-478.27514 -455.00001)"/><path class="cls-4" d="M1802.4116,1011.8641a169.7976,169.7976,0,0,0,17.0062-1.9452h0q2.67735-.4425,5.3411-.9732a167.68593,167.68593,0,0,0,25.6664-7.2695q.16995-.06315.34-.1257c.3209-.1209.6418-.2419.9625-.3667.6247-.2368,1.2469-.4814,1.8675-.7254a3.95021,3.95021,0,1,0-2.9056-7.3467,158.8511,158.8511,0,0,1-176.6968-41.7048,157.69408,157.69408,0,0,1-38.3543-79.8556,160.88177,160.88177,0,0,1-1.8572-16.2237,158.70541,158.70541,0,0,1,132.4262-166.2625c86.3495-14.3108,168.1763,44.2638,182.4883,130.5705a158.71523,158.71523,0,0,1-8.8528,84.0546,3.95062,3.95062,0,1,0,7.3511,2.8967,166.66264,166.66264,0,0,0,9.2984-88.2423c-15.0261-90.6147-100.9945-152.0966-191.5764-137.0766a166.61493,166.61493,0,0,0-139.0234,174.5449,170.347,170.347,0,0,0,1.9487,17.0294,166.60278,166.60278,0,0,0,174.5701,139.0218Z" transform="translate(-478.27514 -455.00001)"/><g class="cls-2"><path class="cls-3" d="M2531.554,1114.031a6.09738,6.09738,0,0,0,5.5608-4.7461c1.1415-5.0512,2.1456-10.2068,2.9823-15.3218a6.10024,6.10024,0,1,0-12.0404-1.9699c-.7976,4.8741-1.7541,9.7876-2.8424,14.6087a6.10381,6.10381,0,0,0,4.6062,7.2946A6.17191,6.17191,0,0,0,2531.554,1114.031Z" transform="translate(-478.27514 -455.00001)"/><path class="cls-3" d="M2537.0208,1067.5109a6.10142,6.10142,0,0,1-5.8605-6.3317,253.5396,253.5396,0,0,0-.3232-25.5939q-.17025-2.68395-.4015-5.383a6.10364,6.10364,0,0,1,5.5659-6.5913,6.3158,6.3158,0,0,1,6.5944,5.5688q.237,2.8236.4175,5.6326a264.94395,264.94395,0,0,1,.3359,26.8352,6.09954,6.09954,0,0,1-5.702,5.8535C2537.4421,1067.5141,2537.2332,1067.5152,2537.0208,1067.5109ZM2525.95,999.5478a252.86139,252.86139,0,0,0-8.1908-29.8703,6.10025,6.10025,0,0,1,11.5453-3.9444,264.50124,264.50124,0,0,1,8.5868,31.3141,6.10529,6.10529,0,0,1-4.7232,7.2242,6.25223,6.25223,0,0,1-.8699.1145A6.09986,6.09986,0,0,1,2525.95,999.5478Zm-20.0191-58.5067a250.47686,250.47686,0,0,0-15.2848-26.9487,6.10082,6.10082,0,0,1,10.2202-6.6654,263.18376,263.18376,0,0,1,16.0309,28.2621,6.1013,6.1013,0,0,1-10.9663,5.352Zm-33.7827-51.801a251.70664,251.70664,0,0,0-21.409-22.3814,6.10135,6.10135,0,0,1,8.2778-8.9657,264.52139,264.52139,0,0,1,22.4513,23.4729,6.10056,6.10056,0,0,1-9.3201,7.8742Zm-45.4057-41.9835a254.15306,254.15306,0,0,0-26.2029-16.514,6.1001,6.1001,0,1,1,5.8633-10.6989,266.94339,266.94339,0,0,1,27.4653,17.3049,6.10213,6.10213,0,0,1-7.1257,9.908Zm-54.2209-29.689a250.25745,250.25745,0,0,0-29.4122-9.612,6.10106,6.10106,0,0,1,3.0646-11.811,262.562,262.562,0,0,1,30.8511,10.0825,6.101,6.101,0,0,1-4.5035,11.3405Zm-59.8101-15.5202a250.74612,250.74612,0,0,0-30.8994-2.0981,6.10338,6.10338,0,0,1,.0786-12.2065,264.52183,264.52183,0,0,1,32.3989,2.2059,6.10059,6.10059,0,0,1-1.5781,12.0987Zm-99.6969.6213a6.09675,6.09675,0,0,1,4.4809-7.3702,265.36621,265.36621,0,0,1,27.7286-5.2045c1.4172-.1969,2.8299-.3703,4.2459-.5378a6.10241,6.10241,0,0,1,1.4022,12.124c-1.3279.1503-2.6571.3185-4.0089.5057a253.02336,253.02336,0,0,0-26.4785,4.9638,6.02241,6.02241,0,0,1-1.0643.1629A6.09979,6.09979,0,0,1,2213.0146,802.6687Z" transform="translate(-478.27514 -455.00001)"/></g><g class="cls-2"><path class="cls-3" d="M2293.0697,1314.4163a265.72491,265.72491,0,0,1-31.9325-.3192,6.10148,6.10148,0,1,1,.8631-12.1724,252.31714,252.31714,0,0,0,30.4573.3052,6.10061,6.10061,0,0,1,.6955,12.1811Zm24.7133-8.5052a6.09759,6.09759,0,0,1,4.9767-7.0435,255.05648,255.05648,0,0,0,29.6762-6.9633,6.10195,6.10195,0,0,1,3.4941,11.693,266.81838,266.81838,0,0,1-31.1003,7.2927,6.192,6.192,0,0,1-.6577.0778A6.09916,6.09916,0,0,1,2317.783,1305.9111Zm-88.3267,3.9828a264.686,264.686,0,0,1-30.9177-8.0305,6.10222,6.10222,0,0,1,3.7763-11.6055,253.06491,253.06491,0,0,0,29.4918,7.6674,6.09861,6.09861,0,1,1-2.3504,11.9686Zm148.4438-20.4537a6.102,6.102,0,0,1,3.1372-8.0367,250.5386,250.5386,0,0,0,27.1102-13.9161,6.09986,6.09986,0,1,1,6.2237,10.4928,261.6389,261.6389,0,0,1-28.4344,14.5973,6.10184,6.10184,0,0,1-8.0367-3.1373Zm-209.057.6983a265.27134,265.27134,0,0,1-28.0739-15.2308,6.10207,6.10207,0,0,1,6.4584-10.3552,250.97259,250.97259,0,0,0,26.7754,14.5253,6.10254,6.10254,0,0,1-5.1599,11.0607Zm-54.1128-33.7247a266.68332,266.68332,0,0,1-23.6225-21.5068,6.099,6.099,0,0,1,8.7428-8.5062,254.914,254.914,0,0,0,22.538,20.5132,6.10114,6.10114,0,0,1-7.6583,9.4998ZM2070.2456,1210.7a263.70127,263.70127,0,0,1-17.779-26.5576,6.101,6.101,0,0,1,10.5329-6.1601,249.4958,249.4958,0,0,0,16.9548,25.3207,6.09914,6.09914,0,0,1-1.1591,8.5499,6.0355,6.0355,0,0,1-3.3031,1.236A6.09994,6.09994,0,0,1,2070.2456,1210.7Z" transform="translate(-478.27514 -455.00001)"/><path class="cls-3" d="M2437.7065,1261.122a6.07507,6.07507,0,0,0,3.3404-1.2628c4.1312-3.1932,8.1846-6.5245,12.0537-9.898a6.1019,6.1019,0,1,0-8.0216-9.1971c-3.6877,3.2189-7.557,6.3955-11.4975,9.4452a6.10033,6.10033,0,0,0,4.125,10.9127Z" transform="translate(-478.27514 -455.00001)"/></g><path class="cls-3" d="M2453.8953,1146.1187a3.09025,3.09025,0,0,0,.0058-3.5866l-21.7736-30.6501a163.7836,163.7836,0,0,0,12.0289-51.6782l33.0375-17.8945a3.08978,3.08978,0,0,0,1.5762-3.2217l-7.3784-44.4884a3.087,3.087,0,0,0-2.5305-2.5405l-37.0458-6.2717a163.7615,163.7615,0,0,0-28.0668-45.0298l10.7142-36.0368a3.08911,3.08911,0,0,0-1.1634-3.3926l-36.6751-26.2414a3.08827,3.08827,0,0,0-3.5867-.0059l-30.6488,21.7736a163.7541,163.7541,0,0,0-51.6795-12.0295l-17.8939-33.0375a3.08848,3.08848,0,0,0-3.2211-1.5762l-44.4896,7.3778a3.089,3.089,0,0,0-2.5399,2.5317l-6.2723,37.0459a163.73463,163.73463,0,0,0-45.0291,28.0673l-36.0375-10.7154a3.08859,3.08859,0,0,0-3.392,1.1634l-26.242,36.6758a3.0892,3.0892,0,0,0-.0059,3.5854l21.7743,30.6507a163.73907,163.73907,0,0,0-12.0295,51.6782l-33.0376,17.8945a3.087,3.087,0,0,0-1.5761,3.2211l7.3778,44.4896a3.089,3.089,0,0,0,2.5317,2.5399l37.0452,6.2717a163.763,163.763,0,0,0,28.0673,45.0298l-10.7148,36.0368a3.089,3.089,0,0,0,1.1634,3.3926l36.6752,26.2414a3.09024,3.09024,0,0,0,3.5867.0065l30.6494-21.7742a163.76834,163.76834,0,0,0,51.6788,12.0295l17.8939,33.0375a3.09066,3.09066,0,0,0,3.2218,1.5762l44.4889-7.3784a3.08833,3.08833,0,0,0,2.5399-2.5317l6.2724-37.0447a163.77115,163.77115,0,0,0,45.0291-28.0673l36.0375,10.7148a3.08849,3.08849,0,0,0,3.392-1.1634Z" transform="translate(-478.27514 -455.00001)"/><path class="cls-4" d="M2275.9244,1095.2226a45.9937,45.9937,0,1,1,6.8394.0671A47.08646,47.08646,0,0,1,2275.9244,1095.2226Zm-30.0078-48.7997a33.94088,33.94088,0,0,0,31.0149,36.6419h0a33.94485,33.94485,0,0,0,5.6271-67.6561,34.38013,34.38013,0,0,0-4.9849-.0479A33.99908,33.99908,0,0,0,2245.9166,1046.4229Z" transform="translate(-478.27514 -455.00001)"/><path class="cls-4" d="M2286.2038,1163.3136q5.77875-.3669,11.6097-1.328a115.56277,115.56277,0,0,0,22.5948-6.144q.48945-.19245.9787-.3849a6.09918,6.09918,0,1,0-4.4866-11.3433,103.041,103.041,0,0,1-21.0778,5.8331l-.003.0002c-.3956.0667-.7945.1275-1.188.1885a101.71523,101.71523,0,0,1-50.0832-4.7063,103.28379,103.28379,0,0,1-24.5488-12.7387c-.0627-.0437-.1247-.0875-.1874-.1312-.1909-.1376-.3814-.2685-.5692-.4058a102.0509,102.0509,0,0,1-41.5619-66.7319,103.93588,103.93588,0,0,1-1.2039-10.5015,102.72482,102.72482,0,1,1,198.1381,31.3044,6.10088,6.10088,0,0,0,3.4356,7.9124,6.10532,6.10532,0,0,0,7.9152-3.4396,114.92665,114.92665,0,1,0-221.6666-35.0281,117.3424,117.3424,0,0,0,1.3427,11.7458A115.08555,115.08555,0,0,0,2286.2038,1163.3136Z" transform="translate(-478.27514 -455.00001)"/><path class="cls-3" d="M3210.829,1745.5755a32.99267,32.99267,0,0,0-34.0432-32.4028l-714.4528,22.8291a32.99453,32.99453,0,0,0-31.9255,33.9598l35.2525,1183.243a32.99506,32.99506,0,0,0,33.2999,32.0102l700.0923-6.809a32.99318,32.99318,0,0,0,32.6677-33.5664Z" transform="translate(-478.27514 -455.00001)"/><g class="cls-5"><path class="cls-6" d="M3136.2944,1803.4468H2500.0709c-6.188,0-11.1531,3.3024-11.0893,9.1693l.6073,55.5487c.0643,5.893,5.167,12.2497,11.3723,12.2561l638.0349.5134c6.3169.0069,11.2061-6.8537,11.003-12.7997l-1.9355-55.3769C3147.8617,1806.8369,3142.5925,1803.4468,3136.2944,1803.4468Z" transform="translate(-478.27514 -455.00001)"/><path class="cls-6" d="M3140.425,1923.152l-638.9926-1.0632c-6.2154-.0105-11.1888,5.9219-11.125,11.8394l.6129,56.7652c.0646,5.944,5.1774,11.5801,11.41,11.597l640.8197,1.7701a11.35641,11.35641,0,0,0,11.0896-11.64l-1.9527-57.2821C3152.0834,1929.1659,3146.7503,1923.1625,3140.425,1923.152Z" transform="translate(-478.27514 -455.00001)"/><path class="cls-6" d="M3144.7358,2051.1135l-641.8834-2.1827c-6.2426-.0217-11.2722,2.8626-11.2072,8.8323l.6181,57.2617c.065,5.9958,5.1882,10.5281,11.4477,10.5562l643.6297,2.8643c6.3727.0285,11.3831-4.5007,11.1768-10.5518l-1.9704-57.7887C3156.342,2054.0801,3151.0908,2051.1348,3144.7358,2051.1135Z" transform="translate(-478.27514 -455.00001)"/><path class="cls-6" d="M3148.9402,2175.9105l-644.703-3.2848c-6.2695-.0313-11.308,4.0334-11.243,10.0561l.6238,57.7638c.0654,6.0487,5.1982,9.4584,11.485,9.4974l646.4655,3.9772c6.4003.0398,11.4729-3.3378,11.2646-9.4432l-1.9876-58.3008C3160.6388,2180.0981,3155.3233,2175.9431,3148.9402,2175.9105Z" transform="translate(-478.27514 -455.00001)"/><path class="cls-6" d="M3153.1816,2301.8037l-647.5472-4.4059a11.28224,11.28224,0,0,0-11.2787,11.3008l.6289,58.2731c.0663,6.1026,5.2565,12.7145,11.5722,12.7646l649.424,5.1501c6.4301.051,11.4164-6.5412,11.2064-12.7008l-2.0052-58.819A12.2825,12.2825,0,0,0,3153.1816,2301.8037Z" transform="translate(-478.27514 -455.00001)"/><path class="cls-6" d="M3157.4607,2428.8075l-650.4167-5.5458c-6.3245-.0538-11.3814,6.4373-11.3152,12.5663l.635,58.7898a11.99633,11.99633,0,0,0,11.6102,11.7049l652.3104,6.3032a11.251,11.251,0,0,0,11.2955-11.5913l-2.0229-59.3449C3169.3463,2435.5025,3163.9004,2428.8621,3157.4607,2428.8075Z" transform="translate(-478.27514 -455.00001)"/><path class="cls-6" d="M3161.9268,2561.3752l-653.4121-6.7459c-6.3534-.0658-11.4674,3.272-11.4007,9.4552l.6406,59.3131c.0674,6.2114,5.2785,10.5539,11.6491,10.6265l655.2224,7.4769c6.4882.0742,11.5998-4.1908,11.3858-10.4611l-2.0414-59.8783C3173.7578,2564.9194,3168.3966,2561.4419,3161.9268,2561.3752Z" transform="translate(-478.27514 -455.00001)"/><path class="cls-6" d="M3166.2829,2690.6853l-656.3329-7.928c-6.3819-.0766-11.5059,4.4882-11.438,10.7272l.6466,59.843c.0674,6.2667,5.2885,9.444,11.6881,9.5279l658.1596,8.6709c6.518.0859,11.6941-2.983,11.4782-9.3103l-2.0599-60.4181C3178.2099,2695.4991,3172.782,2690.7636,3166.2829,2690.6853Z" transform="translate(-478.27514 -455.00001)"/><path class="cls-6" d="M3170.6784,2821.151l-659.281-9.1297c-6.4104-.0887-11.5436,5.726-11.4758,12.0204l.653,60.3804c.0683,6.3233,5.3492,12.8156,11.778,12.9127l661.2266,9.9281c6.5485.0983,11.6359-6.2988,11.418-12.6831l-2.078-60.966C3182.7017,2827.258,3177.2068,2821.2409,3170.6784,2821.151Z" transform="translate(-478.27514 -455.00001)"/></g><path class="cls-4" d="M1604.7934,2961.8176s236.052-1448.5047-368.3216-2486.3742a21.51712,21.51712,0,0,0-36.1413-1.7577C1056.9439,675.2225,207.053,1986.2147,1604.7934,2961.8176Z" transform="translate(-478.27514 -455.00001)"/><path class="cls-7" d="M1182.3975,897.5475s-.872,7.9553-2.0868,22.9548c-1.2508,14.9897-2.8298,37.0008-4.4169,65.0436-1.6998,28.0363-3.0225,62.124-4.1475,101.2246-.3315,19.5617-.9716,40.3645-.9944,62.3102q-.13725,16.4544-.2792,33.7382.0636,17.27745.1273,35.3385c-.0196,12.0375.1633,24.3232.4246,36.8407q.338,18.7764.6907,38.245.6417,19.4523,1.303,39.5448.3306,10.047.6678,20.2377.48255,10.1841.9732,20.5153,1.0092,20.66235,2.0411,41.8634c.7805,14.1276,1.8174,28.4119,2.7302,42.8595,1.6753,28.905,4.2046,58.3782,6.5673,88.3641,1.0581,15.0028,2.8004,30.0742,4.2128,45.2827,1.5366,15.1954,2.8837,30.5215,4.6047,45.9031q2.709,23.05275,5.4489,46.3766,1.3692,11.6538,2.7448,23.3696,1.6068,11.6832,3.22,23.412,3.24045,23.46435,6.5021,47.0952c2.1701,15.7473,4.9329,31.4555,7.3789,47.242,2.5914,15.7637,4.8937,31.609,7.7333,47.376q4.3059,23.6406,8.6183,47.3172l4.2552,23.6733c1.4386,7.8867,3.1629,15.7147,4.7288,23.5687q4.81035,23.5476,9.6078,47.0298c3.024,15.6886,6.8204,31.1747,10.3474,46.6739q5.35425,23.234,10.6741,46.3146c7.5536,30.6521,15.6396,60.9124,23.3026,90.8918q12.88335,44.592,25.4156,87.9788,13.72095,42.96075,26.9439,84.3669,14.37975,40.9572,28.0983,80.0235c9.6241,25.8221,19.5764,50.7201,28.8838,74.9289,2.3693,6.0384,4.621,12.0604,7.0295,17.9615q3.76215,8.78325,7.4556,17.4129,7.3872,17.2578,14.4917,33.8493,7.10055,16.59165,13.9006,32.4712,7.3356,15.6363,14.3235,30.5281,13.9635,29.78835,26.4377,56.3991,13.42215,26.07525,25.0661,48.6986,5.8074,11.28645,11.1362,21.6388c3.5613,6.8906,6.8482,13.5233,10.4144,19.5715,27.5709,48.9435,43.3248,76.9112,43.3248,76.9112l.0425.0784a2.17855,2.17855,0,0,1-3.7752,2.175s-16.3352-27.713-44.9218-76.2124c-3.6706-6.0122-7.0686-12.6057-10.7442-19.4572q-5.5011-10.28715-11.5036-21.5179-11.9991-22.45035-25.8972-48.4504-12.90045-26.4378-27.3979-56.1543-7.19115-14.85735-14.7447-30.4594-6.9708-15.86655-14.2582-32.4484-7.2843-16.5768-14.8656-33.8329-3.78915-8.6265-7.6484-17.4096c-2.4738-5.898-4.7908-11.92-7.227-17.955-9.5703-24.2024-19.8002-49.1036-29.7068-74.9355q-14.1201-39.02715-28.9703-80.0659-13.48095-41.44215-27.504-84.5564-12.702-43.46025-25.7927-88.2433c-7.7904-30.0708-16.0021-60.4258-23.6814-91.1727q-5.4105-23.141-10.8619-46.455c-3.589-15.5481-7.4475-31.0832-10.532-46.8208q-4.8888-23.5476-9.7939-47.1767c-1.5969-7.8802-3.3523-15.7343-4.8202-23.6439l-4.3467-23.7484q-4.28865-23.7582-8.5758-47.5066c-2.7987-15.8323-5.0586-31.7429-7.6075-47.5687-2.4036-15.8518-5.1256-31.622-7.2516-47.4347q-3.19635-23.7141-6.3714-47.2715-1.58235-11.7762-3.1563-23.5034-1.34235-11.7567-2.6779-23.4545-2.67225-23.4006-5.3167-46.5465c-1.6769-15.4371-2.9783-30.8154-4.4707-46.0631-1.3684-15.2608-3.0666-30.3811-4.0806-45.4362-2.2239-30.0871-4.8202-59.6453-6.1934-88.658-.774-14.4966-1.6737-28.8299-2.3187-43.0032q-.82785-21.2697-1.6378-42.0005-.3894-10.36065-.7756-20.5807-.2376-10.21845-.4719-20.2932-.46785-20.14305-.9193-39.6591-.1641-19.5111-.32-38.3462c-.1405-12.5535-.2025-24.8685-.0653-36.9322-.0294-48.2609,1.3797-92.4887,2.8689-131.6612,1.7521-39.1692,3.6217-73.296,5.7722-101.365,1.979-28.0788,4.1605-50.0931,5.6987-65.0991,1.5398-15.0028,2.5881-23.0005,2.5881-23.0005l.0032-.0229a2.18023,2.18023,0,0,1,4.3288.5225Z" transform="translate(-478.27514 -455.00001)"/><path class="cls-3" d="M1390.856,3103.413s-5.2153-1690.3377-802.9235-2187.6943a25.888,25.888,0,0,0-38.189,13.7286C487.6433,1113.3386,223.168,2111.7315,1390.856,3103.413Z" transform="translate(-478.27514 -455.00001)"/><path class="cls-7" d="M654.6295,1212.467s6.943,29.9543,20.7011,82.0398c6.8577,26.0424,15.4073,57.6095,25.6242,93.7077,10.0932,36.1326,22.0946,76.7249,35.4827,120.9145,13.5373,44.1438,28.404,91.9083,44.8935,142.1811,8.0956,25.1822,16.8906,50.8978,25.6158,77.2692,9.0677,26.254,18.0625,53.1673,27.711,80.3649,9.5763,27.2221,19.3007,54.9024,29.5292,82.7852,10.0224,27.9586,20.5535,56.1128,31.1809,84.4865q3.9762,10.6419,7.9716,21.3285,4.0941,10.644,8.202,21.3231,8.21475,21.355,16.4731,42.8251c11.126,28.5667,22.5972,57.1305,34.0921,85.6828,11.8007,28.4243,23.3289,56.9613,35.3062,85.1841q9.0327,21.13935,18.0233,42.1865,4.5102,10.51365,9.0036,20.9956,4.6101,10.42845,9.1998,20.819c12.3385,27.6689,24.2401,55.2618,36.7142,82.205,12.3866,26.9818,24.2823,53.7895,36.7398,79.8077q9.21435,19.5711,18.2722,38.8024,4.48635,9.6267,8.9291,19.1645,4.56735,9.4788,9.0856,18.8563c12.1174,24.9768,23.6864,49.5512,35.4672,73.2148q8.85375,17.7441,17.46,34.9841,8.50215,17.28615,16.7366,34.0367,16.93185,33.2466,32.6648,64.1371c10.3506,20.6256,20.8472,40.0863,30.6604,58.6853,9.8149,18.599,18.828,36.403,27.742,52.8978,17.8757,32.967,33.4591,61.7056,46.2924,85.3754,13.0675,23.5463,23.3343,42.0501,30.334,54.6649,6.9402,12.6547,10.6403,19.4055,10.6403,19.4055l.0221.0378a2.5025,2.5025,0,0,1-4.3323,2.5036s-4.0063-6.5801-11.5162-18.9159c-7.449-12.379-18.3735-30.532-32.2776-53.6372-7.0746-11.4873-14.3206-24.5375-22.4015-38.6391q-12.07665-21.17985-26.0602-45.7067c-18.2606-32.8239-38.79-69.9168-60.1272-110.9364q-16.0053-30.76455-33.2881-63.9848-8.39265-16.7043-17.0621-33.9597-8.56215-17.30175-17.3802-35.1137c-23.062-47.694-47.3931-97.9915-71.0544-150.7222-23.869-52.6287-47.7887-107.3486-71.3223-163.2655-12.0134-27.8506-23.2236-56.3039-35.1123-84.598-11.7168-28.3675-22.9844-57.0461-34.5227-85.6119q-16.7934-43.0545-33.5447-85.9938-8.19045-21.5088-16.3436-42.9219-4.07565-10.6992-8.1378-21.3666-3.96075-10.70685-7.9058-21.3721c-10.5413-28.435-20.9848-56.6506-30.9225-84.6638-10.1407-27.941-19.7819-55.6759-29.2735-82.9526-9.5634-27.249-18.4751-54.2169-27.4609-80.5188-8.6432-26.4193-17.3563-52.1828-25.3732-77.4127-16.332-50.365-31.0488-98.2147-44.4456-142.4364-13.2026-44.2804-25.1449-84.9191-35.3138-121.0598-10.2429-36.1195-18.8153-67.7112-25.6927-93.7785-13.791-52.1127-20.7746-82.1626-20.7746-82.1626a2.5035,2.5035,0,1,1,4.8728-1.1515Z" transform="translate(-478.27514 -455.00001)"/><path class="cls-3" d="M2774.155,1398.1177a27.48814,27.48814,0,0,0-29.8555-26.7605l-764.2169,66.1973c-14.2087,1.2316-25.5576,13.1242-25.5576,27.3865V3001.2002c0,15.1819,13.1911,26.3446,28.373,26.3446h800.2597c7.3988,0,14.4853-2.4101,19.658-7.7018a26.8326,26.8326,0,0,0,7.8235-19.555Z" transform="translate(-478.27514 -455.00001)"/><g class="cls-8"><path class="cls-4" d="M2105.888,1513.3256l-58.3296,3.9501c-6.3929.419-9.6678,6.323-9.6678,13.1881V2931.7936c0,7.0092,1.4252,15.3384,7.8857,15.3384h60.8755c6.5003,0,11.8408-7.028,11.8365-14.0643l-.8735-1407.3719C2117.6105,1518.8046,2112.3197,1512.9039,2105.888,1513.3256Z" transform="translate(-478.27514 -455.00001)"/><path class="cls-9" d="M2247.3913,1504.0467l-61.0163,4.0009c-6.4762.4247-12.7213,6.4351-12.7146,13.3437l1.4634,1411.6429c.0073,7.0551,6.3324,14.0978,12.8771,14.0978h61.6751c6.5859,0,10.9667-7.0651,10.9543-14.1476l-2.3589-1416.4321C2258.2597,1509.6177,2253.907,1503.62,2247.3913,1504.0467Z" transform="translate(-478.27514 -455.00001)"/><path class="cls-4" d="M2390.7419,1494.6468l-61.8149,4.0537c-6.5601.43-10.3413,6.3153-10.3262,13.2691l3.002,1420.9797c.015,7.1016,3.8621,14.1827,10.4938,14.1827h62.4893c6.6735,0,13.6935-7.1032,13.6741-14.2335l-3.923-1425.8408C2404.3176,1500.0776,2397.3428,1494.2144,2390.7419,1494.6468Z" transform="translate(-478.27514 -455.00001)"/><path class="cls-4" d="M2535.9749,1485.1237l-62.6278,4.1063c-6.6465.436-11.5034,6.4283-11.4807,13.4269l4.544,1430.2075c.0227,7.1487,4.9696,14.2676,11.689,14.2676h63.3213c6.7625,0,12.8187-7.1417,12.7909-14.3188l-5.4883-1435.1407C2548.6965,1490.6465,2542.6627,1484.6847,2535.9749,1485.1237Z" transform="translate(-478.27514 -455.00001)"/><path class="cls-4" d="M2683.1294,1475.4736l-63.4582,4.1614a13.94026,13.94026,0,0,0-12.6641,13.5872l6.126,1439.5566c.0311,7.1961,6.1071,14.3532,12.9163,14.3532h64.1695c6.8527,0,11.919-7.1801,11.8833-14.4051l-7.0956-1444.563C2694.9722,1481.0924,2689.9059,1475.0295,2683.1294,1475.4736Z" transform="translate(-478.27514 -455.00001)"/></g><path class="cls-4" d="M2175.8347,1717.5112a29.75953,29.75953,0,0,0-30.9507-29.3243l-609.5733,24.4395a19.18151,19.18151,0,0,0-18.4075,19.6207l30.9431,1303.1306,616.3665-7.5202a29.76222,29.76222,0,0,0,29.3953-30.1726Z" transform="translate(-478.27514 -455.00001)"/><g class="cls-10"><polygon class="cls-6" points="1206.632 1502.692 1108.54 1502.718 1107.381 1335.07 1205.689 1335.07 1206.632 1502.692"/><polygon class="cls-6" points="1347.439 1502.381 1249.712 1502.406 1248.863 1335.07 1346.804 1335.07 1347.439 1502.381"/><polygon class="cls-6" points="1495.5 1502.054 1398.157 1502.077 1397.632 1335.07 1495.188 1335.07 1495.5 1502.054"/><polygon class="cls-6" points="1643.218 1502.119 1544.191 1501.95 1541.925 1335.07 1643.218 1335.07 1643.218 1502.119"/><polygon class="cls-6" points="1207.972 1740.729 1110.187 1741.253 1109.035 1574.836 1207.035 1574.527 1207.972 1740.729"/><polygon class="cls-6" points="1348.341 1739.978 1250.918 1740.499 1250.074 1574.391 1347.71 1574.082 1348.341 1739.978"/><polygon class="cls-6" points="1495.944 1739.187 1398.901 1739.707 1398.381 1573.922 1495.633 1573.616 1495.944 1739.187"/><polygon class="cls-6" points="1643.218 1738.421 1544.49 1738.939 1545.308 1573.468 1643.218 1573.163 1643.218 1738.421"/><polygon class="cls-6" points="1209.349 1984.763 1111.878 1985.6 1110.734 1820.246 1208.418 1819.62 1209.349 1984.763"/><polygon class="cls-6" points="1349.268 1983.562 1252.157 1984.395 1251.319 1819.346 1348.64 1818.723 1349.268 1983.562"/><polygon class="cls-6" points="1496.399 1982.299 1399.667 1983.129 1399.149 1818.4 1496.091 1817.78 1496.399 1982.299"/><polygon class="cls-6" points="1643.218 1981.074 1544.797 1981.902 1545.617 1817.483 1643.218 1816.865 1643.218 1981.074"/><polygon class="cls-6" points="1210.695 2223.344 1113.531 2224.484 1112.421 2064.088 1209.792 2063.151 1210.695 2223.344"/><polygon class="cls-6" points="1350.174 2221.707 1253.368 2222.843 1252.555 2062.74 1349.566 2061.807 1350.174 2221.707"/><polygon class="cls-6" points="1496.844 2219.985 1400.414 2221.117 1399.913 2061.323 1496.545 2060.393 1496.844 2219.985"/><polygon class="cls-6" points="1643.218 2218.315 1545.097 2219.443 1545.924 2059.947 1643.218 2059.021 1643.218 2218.315"/><polygon class="cls-6" points="1212.054 2464.31 1115.201 2465.755 1114.098 2306.377 1211.156 2305.133 1212.054 2464.31"/><polygon class="cls-6" points="1351.089 2462.235 1254.591 2463.675 1253.783 2304.587 1350.484 2303.347 1351.089 2462.235"/><polygon class="cls-6" points="1497.294 2460.053 1401.17 2461.487 1400.671 2302.703 1496.996 2301.469 1497.294 2460.053"/><polygon class="cls-6" points="1643.218 2457.936 1545.402 2459.366 1546.228 2300.877 1643.218 2299.647 1643.218 2457.936"/></g><path class="cls-11" d="M284.27636,1150.11349h920.1902a21.6664,21.6664,0,0,1,21.6664,21.6664v635.5214a21.6663,21.6663,0,0,1-21.6663,21.6663H284.27636a21.6664,21.6664,0,0,1-21.6664-21.6664v-635.5213A21.6664,21.6664,0,0,1,284.27636,1150.11349Z"/><path class="cls-12" d="M321.724,1150.11349h920.1902a21.6664,21.6664,0,0,1,21.6664,21.6664v635.5214a21.6663,21.6663,0,0,1-21.6663,21.6663H321.724a21.6664,21.6664,0,0,1-21.6664-21.6664v-635.5213A21.6664,21.6664,0,0,1,321.724,1150.11349Z"/><path class="cls-6" d="M1053.3554,2194.5787c-7.4097,0-13.6692-.0896-18.629-.1892a17.03593,17.03593,0,0,1-4.168-33.4436c44.0304-12.3397,92.0396-33.3142,127.3905-50.2949-168.5925-13.744-202.2502-100.3308-208.7537-139.9393-16.413-99.8826,70.2784-212.9017,193.2419-251.9425,125.4833-39.8077,252.5899-25.4661,323.8692,36.5609,37.8755,32.9656,78.958,96.0881,59.587,209.6848C1489.6611,2177.5482,1158.2178,2194.5787,1053.3554,2194.5787Zm-14.4909-4.1929h0Zm-3.5057-26.5915h0Zm243.5816-83.1111-53.4121,29.7786a1173.21616,1173.21616,0,0,1-107.0036,51.5497c130.1591-7.848,350.3611-44.618,377.2116-202.1356,13.6244-79.9539-3.0277-141.0149-49.5081-181.46-72.1059-62.764-199.8699-60.5132-294.5338-30.4856-107.2078,34.0411-186.116,133.7844-172.3123,217.8216,12.5339,76.2889,99.4096,118.9649,238.4177,116.0468Z" transform="translate(-478.27514 -455.00001)"/><rect class="cls-13" x="274.36486" y="351.90229" width="963.523" height="678.8541" rx="21.6664"/><path class="cls-14" d="M333.34366,355.24649H1253.534a21.6664,21.6664,0,0,1,21.6664,21.6664v635.5213a21.6663,21.6663,0,0,1-21.6663,21.6663H333.34376a21.6664,21.6664,0,0,1-21.6664-21.6664V376.91279a21.6663,21.6663,0,0,1,21.6663-21.6663Z"/><path class="cls-15" d="M1483.1801,1389.5774H1029.0377a67.56156,67.56156,0,0,1-67.4863-67.4864V971.3678a67.56154,67.56154,0,0,1,67.4863-67.4863h454.1424a67.56154,67.56154,0,0,1,67.4863,67.4863V1322.091A67.56156,67.56156,0,0,1,1483.1801,1389.5774ZM1029.0377,927.2903a44.12862,44.12862,0,0,0-44.0776,44.0775V1322.091a44.12864,44.12864,0,0,0,44.0776,44.0776h454.1424a44.12864,44.12864,0,0,0,44.0776-44.0776V971.3678a44.12862,44.12862,0,0,0-44.0776-44.0775Z" transform="translate(-478.27514 -455.00001)"/><polygon class="cls-16" points="776.774 692.998 503.018 487.629 517.067 468.904 777.159 664.025 1043.836 474.86 1057.382 493.952 776.774 692.998"/><rect class="cls-17" x="1432.02882" y="1037.84196" width="23.40576" height="346.54929" transform="translate(-887.09305 410.82744) rotate(-29.43461)"/><rect class="cls-18" x="894.92825" y="1195.9921" width="346.54094" height="23.40729" transform="translate(-983.5045 1104.69235) rotate(-61.11765)"/><path class="cls-19" d="M284.27626,1966.96939h920.1903a21.6664,21.6664,0,0,1,21.6664,21.6664v635.5213a21.6664,21.6664,0,0,1-21.6664,21.6664H284.27636a21.6664,21.6664,0,0,1-21.6664-21.6664v-635.5214a21.6663,21.6663,0,0,1,21.6663-21.6663Z"/><path class="cls-20" d="M321.72386,1966.96939h920.1903a21.6664,21.6664,0,0,1,21.6664,21.6664v635.5213a21.6664,21.6664,0,0,1-21.6664,21.6664H321.724a21.6664,21.6664,0,0,1-21.6664-21.6664v-635.5214a21.6663,21.6663,0,0,1,21.6663-21.6663Z"/><path class="cls-21" d="M1410.8768,3003.4789c-37.5755,0-81.751-17.6186-131.6906-52.5782h-.0033c-33.023-23.1247-177.1332-167.2349-200.2546-200.2547-41.6577-59.5179-58.6885-110.8487-50.6156-152.5749,5.2154-26.9717,21.2273-49.8743,46.3016-66.2323l21.9228-14.3072a35.68321,35.68321,0,0,1,48.9925,10.0454l60.5401,90.8167a41.05937,41.05937,0,0,1-10.3915,56.4808l-.4213.2841-10.4373,6.7732a36.40028,36.40028,0,0,0-4.9769,57.1666l.3004.2939,110.5842,110.594a36.41264,36.41264,0,0,0,57.1862-4.9737l7.0475-10.839a41.03819,41.03819,0,0,1,56.4906-10.3981l90.8069,60.5336a35.66512,35.66512,0,0,1,10.0519,48.9925l-14.3071,21.9294c-16.3581,25.071-39.2607,41.0829-66.2323,46.2983A109.802,109.802,0,0,1,1410.8768,3003.4789Zm-118.2684-71.7546c54.1262,37.8923,99.4676,53.6462,134.7146,46.824,20.8975-4.0429,38.0817-16.1915,51.0728-36.1091l14.3072-21.9294a12.17583,12.17583,0,0,0-3.4323-16.7271l-90.8069-60.5336a17.73555,17.73555,0,0,0-24.2971,4.314l-6.6229,10.2022a59.81988,59.81988,0,0,1-93.7983,8.3309l-110.0127-110.0095a59.81219,59.81219,0,0,1,8.3407-93.7885l10.2021-6.6196a17.75776,17.75776,0,0,0,4.3206-24.2971l-60.5401-90.8134a12.19623,12.19623,0,0,0-16.7304-3.4291l-21.9196,14.3072c-19.9209,12.9911-32.0695,30.1754-36.1124,51.0728-6.8189,35.2601,8.9285,80.5786,46.811,134.7016,21.7073,31.0016,163.4988,172.7931,194.5069,194.5037Z" transform="translate(-478.27514 -455.00001)"/><path class="cls-22" d="M2393.3942,2395.3098c-.3602.0184-.7224.0282-1.0865.0253l-472.5949-.4803a21.34061,21.34061,0,0,1-21.1288-21.5544c.0124-11.8976,9.5284-21.7275,21.1794-21.5146l472.5957.4812a21.548,21.548,0,0,1,1.0351,43.0428Z" transform="translate(-478.27514 -455.00001)"/><path class="cls-23" d="M1736.691,1923.2751c.1687.3267.3297.6562.4813.9945l198.8476,437.2625a21.72873,21.72873,0,0,1-10.2527,28.6284,20.86209,20.86209,0,0,1-28.0581-10.5152l-198.8486-437.2615a21.73119,21.73119,0,0,1,10.2527-28.6294A20.94957,20.94957,0,0,1,1736.691,1923.2751Z" transform="translate(-478.27514 -455.00001)"/><path class="cls-24" d="M2438.8448,3098.121a479.364,479.364,0,0,1,5.7699,50.2356,21.6352,21.6352,0,0,1-19.4986,22.8374c-40.3419,3.9125-132.1676,11.1369-190.8012,2.676a9.84055,9.84055,0,0,1-5.4047-16.9307c24.1771-22.5249,82.5631-66.3389,178.6636-75.9166Z" transform="translate(-478.27514 -455.00001)"/><path class="cls-25" d="M2458.8996,3046.3474l-20.3961,49.9928a16.65517,16.65517,0,0,1-17.1044,10.3396,90.812,90.812,0,0,1-16.6613-3.2273,21.89288,21.89288,0,0,1-14.557-27.2203l15.394-51.4919Z" transform="translate(-478.27514 -455.00001)"/><path class="cls-26" d="M2807.6071,3137.9384s-40.8425,34.1727-56.7556,78.0072c-4.3775,12.056,4.8739,24.7563,17.7001,24.7563h84.0485a19.82134,19.82134,0,0,0,19.5903-23.18C2866.8357,3187.2528,2851.3978,3138.0649,2807.6071,3137.9384Z" transform="translate(-478.27514 -455.00001)"/><path class="cls-27" d="M2858.2031,3093.4638s-8.2496,36.5156-14.5919,60.6476a7.71544,7.71544,0,0,1-10.0899,5.2584c-12.7202-4.5471-23.0693-6.5584-30.594-5.549a5.95284,5.95284,0,0,1-6.5604-5.9354l-.7906-60.6503Z" transform="translate(-478.27514 -455.00001)"/><path class="cls-28" d="M2640.9845,2271.8004l-248.4266,757.8857s47.6498,31.206,70.3505,29.906l295.0745-609.0843s51.6348,375.2967,26.6152,644.7314l84.5169,6.4482s137.4267-688.5419,33.3356-924.3722Z" transform="translate(-478.27514 -455.00001)"/><path class="cls-29" d="M2756.3862,2443.9603a2.69483,2.69483,0,0,0,.3028-.0191,2.40534,2.40534,0,0,0,2.0859-2.687l-9.6407-76.5204a2.40555,2.40555,0,0,0-4.7734.6011l9.6406,76.5204A2.40523,2.40523,0,0,0,2756.3862,2443.9603Z" transform="translate(-478.27514 -455.00001)"/><path class="cls-30" d="M2594.4091,1604.899s201.2727,17.8732,172.8014,161.2843c0,0,111.2586,209.3765,163.2743,456.0196a14.50232,14.50232,0,0,1-11.7682,17.2378l-335.1867,57.3903a18.0438,18.0438,0,0,1-20.5135-13.2652l-80.0875-309.5208-31.2081,143.9069-99.1622-25.8375,83.4782-422.8673S2447.6825,1607.5504,2594.4091,1604.899Z" transform="translate(-478.27514 -455.00001)"/><path class="cls-31" d="M2481.2247,1960.2006a2.49178,2.49178,0,0,0,2.4414-3.0261l-27.9405-128.2927a2.49619,2.49619,0,0,0-4.8781,1.0621l27.9398,128.2926A2.49929,2.49929,0,0,0,2481.2247,1960.2006Z" transform="translate(-478.27514 -455.00001)"/><path class="cls-32" d="M2501.4565,2341.9641a47.8492,47.8492,0,0,1,34.6118-4.5026l23.3202,5.8047a8.44941,8.44941,0,0,0,10.4386-7.2559l24.134-214.8038c30.1754,14.3293,73.7097,12.6175,88.0663,11.5685l-55.5452,253.2363H2432.1079Z" transform="translate(-478.27514 -455.00001)"/><path class="cls-33" d="M1985.0088,1876.031l5.8752-19.5253a38.62284,38.62284,0,0,1,22.5741-24.7037l106.2574-42.7307s1.6037-13.6276-22.451-22.888-18.4318-36.2011-18.4318-36.2011,32.8651,14.992,80.9744,38.7683c27.5158,13.5983,42.9531,37.6058,51.1391,55.6772l240.7746,293.5242-28.2687,19.4235a75.472,75.472,0,0,1-109.4224-26.8538l-130.4359-250.1212C2118.1057,1880.0734,2051.8394,1883.8348,1985.0088,1876.031Z" transform="translate(-478.27514 -455.00001)"/><path class="cls-34" d="M2529.2041,1467.969l61.9059,173.259s-54.8175,42.8558-94.8209,28.3651l-31.1951-99.316S2488.9196,1448.893,2529.2041,1467.969Z" transform="translate(-478.27514 -455.00001)"/><path class="cls-35" d="M2344.4451,1405.7458c0,2.6698,59.6327,168.8116,59.6327,168.8116l94.1405-36.0656L2465.094,1372.627S2344.4451,1361.0496,2344.4451,1405.7458Z" transform="translate(-478.27514 -455.00001)"/><path class="cls-36" d="M2448.5805,1413.0352l24.2749,85.949a12.31216,12.31216,0,0,1,.4718,3.3579c.0096,7.0104-1.7261,31.1314-26.2964,27.8509-22.2944-2.977-42.6856-5.3623-55.6519.7447a12.46345,12.46345,0,0,0-6.4312,15.498c5.4218,15.0932,18.2684,48.8795,33.9087,76.5307a12.44032,12.44032,0,0,0,16.0027,5.1236c17.681-8.0445,54.4962-26.053,80.7194-47.4789a12.47765,12.47765,0,0,0,4.4145-11.9788c-4.1259-21.9873-16.4157-88.8582-16.9581-108.0225-.5088-17.988,19.6751-31.7196,28.5614-36.8815a12.258,12.258,0,0,0,5.7747-7.7545c2.7895-11.578,5.1571-37.7808-28.266-43.5554a12.49344,12.49344,0,0,1-10.1358-14.8593c2.8285-13.8465,1.9238-34.2233-24.3706-41.7281-26.7266-7.628-43.5439,8.4595-52.0971,20.7953a12.48259,12.48259,0,0,1-15.4714,4.1299c-3.1552-1.4094-6.9666-1.4717-11.0617,1.9812a12.28874,12.28874,0,0,1-17.9771-2.7341c-7.7927-11.4714-21.9511-22.9215-45.9196-15.1664-42.5317,13.761-40.4985,62.7984-24.9082,89.4573,15.5904,26.6583,60.8549,9.1168,82.2828-8.5484,16.292-13.4314,41.0989-5.3965,52.054-.7735A12.36872,12.36872,0,0,1,2448.5805,1413.0352Z" transform="translate(-478.27514 -455.00001)"/><path class="cls-37" d="M2511.5614,1491.9923s-25.1714-47.617-8.5265-62.5693c16.6455-14.953,44.8466-12.5061,44.0875,24.7297C2546.1793,1500.4682,2511.5614,1491.9923,2511.5614,1491.9923Z" transform="translate(-478.27514 -455.00001)"/><path class="cls-38" d="M2662.4952,2135.9981a241.34994,241.34994,0,0,0,24.6018-1.1599l1.7863-.1997,73.2891-341.702a2.495,2.495,0,0,0-4.8788-1.0477l-72.5286,338.1561c-10.9072.9581-69.1516,4.8255-99.8988-16.9574l63.4885-296.8725-13.2515-24.9717a2.49634,2.49634,0,1,0-4.411,2.3388l12.4035,23.3688-63.7805,298.2375,1.2741.9574C2602.8057,2132.8379,2638.5923,2135.9981,2662.4952,2135.9981Z" transform="translate(-478.27514 -455.00001)"/><path class="cls-39" d="M2261.4816,2435.4027c1.9166,6.5015,184.9392,568.7794,231.3421,711.3265,5.3475,16.4285-9.587,32.5586-30.1134,32.5586-14.3126,0-26.7864-8.0769-30.2529-19.5893L2229.289,2484.9431Z" transform="translate(-478.27514 -455.00001)"/><path class="cls-39" d="M2161.2599,2435.4027c-1.9166,6.5015-184.9393,568.7794-231.3421,711.3265-5.3484,16.4285,9.5869,32.5586,30.1125,32.5586,14.3127,0,26.7872-8.0769,30.2537-19.5893l203.1684-674.7554Z" transform="translate(-478.27514 -455.00001)"/><path class="cls-39" d="M2153.6333,2412.9572h113.9869v91.5398a23.68115,23.68115,0,0,1-23.5371,23.8228h-15.6363v205.6143a17.82093,17.82093,0,1,1-35.6393,0V2528.3198h-7.9346a31.43028,31.43028,0,0,1-31.2396-31.617Z" transform="translate(-478.27514 -455.00001)"/><path class="cls-39" d="M2615.8695,2390.9697H1818.288c-11.1465,0-20.8815,6.0916-23.6681,14.809l-11.1351,34.8457c-4.0077,12.5406,7.7721,24.7484,23.8088,24.6733l818.401-3.7993c15.8619-.0735,27.4377-12.1409,23.5626-24.5635l-9.6854-31.0464C2636.8359,2397.1174,2627.0687,2390.9697,2615.8695,2390.9697Z" transform="translate(-478.27514 -455.00001)"/></svg>